<svg width="0" height="0" class="hidden">
  <symbol fill="none" xmlns="http://www.w3.org/2000/svg" viewBox="0 0 65 23" id="eye_closed">
    <path d="M1 1C1 1 11.9375 13.5 32.25 13.5C52.5625 13.5 63.5 1 63.5 1" stroke="black" stroke-width="2" stroke-linecap="round" stroke-linejoin="round"></path>
    <path d="M7.25 6.13965L1 13.499" stroke="black" stroke-width="2" stroke-linecap="round" stroke-linejoin="round"></path>
    <path d="M63.4997 13.5014L57.2622 6.15137" stroke="black" stroke-width="2" stroke-linecap="round" stroke-linejoin="round"></path>
    <path d="M22.6062 12.499L19.75 21.3115" stroke="black" stroke-width="2" stroke-linecap="round" stroke-linejoin="round"></path>
    <path d="M41.8218 12.5264L44.7499 21.3139" stroke="black" stroke-width="2" stroke-linecap="round" stroke-linejoin="round"></path>
  </symbol>
  <symbol fill="none" xmlns="http://www.w3.org/2000/svg" viewBox="0 0 136 46" id="apple_store">
    <path d="M5.52 0H130.364C133.409 0 135.884 2.4748 135.884 5.52V40.48C135.884 43.5252 133.409 46 130.364 46H5.52C2.4748 46 0 43.5252 0 40.48V5.52C0 2.4748 2.4748 0 5.52 0Z" fill="black"></path>
    <path d="M29.7438 21.9517C29.7162 18.6581 32.4394 17.0573 32.559 16.9837C31.0134 14.7389 28.6214 14.4261 27.7842 14.3985C25.7786 14.1869 23.8282 15.6037 22.807 15.6037C21.7674 15.6037 20.185 14.4261 18.4922 14.4537C16.3118 14.4905 14.2602 15.7509 13.147 17.7197C10.8378 21.7217 12.5582 27.6097 14.7754 30.8481C15.8886 32.4305 17.1766 34.2061 18.8786 34.1417C20.5346 34.0773 21.1602 33.0837 23.1566 33.0837C25.1438 33.0837 25.7234 34.1417 27.453 34.1049C29.2378 34.0773 30.351 32.5133 31.4274 30.9125C32.7062 29.1001 33.2214 27.3061 33.2398 27.2141C33.1938 27.1957 29.7806 25.8893 29.7438 21.9517" fill="white"></path>
    <path d="M26.4776 12.2735C27.37 11.1603 27.9772 9.64228 27.8116 8.09668C26.5236 8.15188 24.9044 8.98908 23.9752 10.0839C23.1564 11.0499 22.4204 12.6231 22.6044 14.1043C24.058 14.2147 25.5484 13.3683 26.4776 12.2735" fill="white"></path>
    <path d="M53.774 33.9116H51.4556L50.186 29.9188H45.77L44.5648 33.9116H42.3108L46.6808 20.3232H49.3856L53.774 33.9116ZM49.8088 28.2444L48.6588 24.7024C48.5392 24.3344 48.3092 23.488 47.978 22.1448H47.932C47.794 22.7244 47.5824 23.58 47.288 24.7024L46.1564 28.2444H49.8088Z" fill="white"></path>
    <path d="M65.0071 28.8975C65.0071 30.5627 64.5563 31.8783 63.6455 32.8443C62.8359 33.7091 61.8239 34.1323 60.6279 34.1323C59.3307 34.1323 58.4015 33.6723 57.8311 32.7431V37.8859H55.6507V27.3335C55.6507 26.2847 55.6231 25.2175 55.5679 24.1135H57.4815L57.6011 25.6683H57.6379C58.3647 24.4999 59.4687 23.9111 60.9407 23.9111C62.0999 23.9111 63.0567 24.3711 63.8295 25.2819C64.6207 26.2019 65.0071 27.3979 65.0071 28.8975V28.8975ZM62.7899 28.9711C62.7899 28.0143 62.5783 27.2323 62.1459 26.6159C61.6767 25.9719 61.0419 25.6499 60.2507 25.6499C59.7171 25.6499 59.2295 25.8339 58.7879 26.1835C58.3555 26.5423 58.0611 27.0023 57.9323 27.5819C57.8679 27.8487 57.8311 28.0695 57.8311 28.2443V29.8819C57.8311 30.5903 58.0519 31.1975 58.4843 31.6851C58.9167 32.1727 59.4871 32.4211 60.1863 32.4211C61.0051 32.4211 61.6399 32.0991 62.0999 31.4735C62.5599 30.8387 62.7899 30.0107 62.7899 28.9711V28.9711Z" fill="white"></path>
    <path d="M76.2678 28.8975C76.2678 30.5627 75.817 31.8783 74.9062 32.8443C74.0966 33.7091 73.0846 34.1323 71.8886 34.1323C70.5914 34.1323 69.6622 33.6723 69.0918 32.7431V37.8859H66.9114V27.3335C66.9114 26.2847 66.8838 25.2175 66.8286 24.1135H68.7422L68.8618 25.6683H68.8986C69.6254 24.4999 70.7294 23.9111 72.2014 23.9111C73.3606 23.9111 74.3174 24.3711 75.0902 25.2819C75.8814 26.2019 76.2678 27.3979 76.2678 28.8975ZM74.0506 28.9711C74.0506 28.0143 73.839 27.2323 73.4066 26.6159C72.9374 25.9719 72.3026 25.6499 71.5114 25.6499C70.9778 25.6499 70.4902 25.8339 70.0486 26.1835C69.6162 26.5423 69.331 27.0023 69.193 27.5819C69.1286 27.8487 69.0918 28.0695 69.0918 28.2443V29.8819C69.0918 30.5903 69.3126 31.1975 69.745 31.6851C70.1774 32.1727 70.7478 32.4211 71.447 32.4211C72.2658 32.4211 72.9098 32.0991 73.3606 31.4735C73.8298 30.8387 74.0506 30.0107 74.0506 28.9711V28.9711Z" fill="white"></path>
    <path d="M88.8719 30.1027C88.8719 31.2619 88.4671 32.2003 87.6667 32.9271C86.7835 33.7183 85.5507 34.1139 83.9683 34.1139C82.5055 34.1139 81.3371 33.8287 80.4539 33.2675L80.9599 31.4551C81.9167 32.0163 82.9655 32.3015 84.1063 32.3015C84.9251 32.3015 85.5691 32.1175 86.0199 31.7495C86.4799 31.3815 86.7099 30.8847 86.7099 30.2683C86.7099 29.7163 86.5167 29.2563 86.1487 28.8791C85.7715 28.5019 85.1459 28.1523 84.2719 27.8303C81.8707 26.9379 80.6839 25.6407 80.6839 23.9387C80.6839 22.8255 81.1071 21.9147 81.9443 21.1971C82.7815 20.4887 83.8947 20.1299 85.2839 20.1299C86.5167 20.1299 87.5471 20.3415 88.3659 20.7739L87.8139 22.5403C87.0411 22.1263 86.1763 21.9147 85.2011 21.9147C84.4375 21.9147 83.8303 22.1079 83.3979 22.4759C83.0391 22.8163 82.8551 23.2211 82.8551 23.7087C82.8551 24.2423 83.0667 24.6931 83.4807 25.0335C83.8395 25.3555 84.5019 25.7051 85.4587 26.0823C86.6271 26.5515 87.4827 27.1035 88.0347 27.7383C88.5959 28.3731 88.8719 29.1643 88.8719 30.1027" fill="white"></path>
    <path d="M96.0847 25.7514H93.6834V30.5078C93.6834 31.713 94.1066 32.3202 94.953 32.3202C95.3394 32.3202 95.6614 32.2834 95.919 32.219L95.9834 33.875C95.551 34.0314 94.9899 34.1142 94.2907 34.1142C93.4259 34.1142 92.7634 33.8474 92.2758 33.323C91.7882 32.7986 91.549 31.9154 91.549 30.6826V25.7422H90.123V24.1138H91.549V22.3198L93.6834 21.6758V24.1138H96.0847V25.7514" fill="white"></path>
    <path d="M106.885 28.9339C106.885 30.4427 106.453 31.6755 105.597 32.6415C104.696 33.6351 103.5 34.1319 102.009 34.1319C100.574 34.1319 99.4242 33.6535 98.5686 32.7059C97.713 31.7583 97.2898 30.5531 97.2898 29.0995C97.2898 27.5815 97.7314 26.3395 98.6054 25.3735C99.4886 24.4075 100.675 23.9199 102.166 23.9199C103.601 23.9199 104.76 24.3983 105.634 25.3551C106.471 26.2751 106.885 27.4711 106.885 28.9339V28.9339ZM104.631 28.9799C104.631 28.0783 104.438 27.3147 104.052 26.6707C103.592 25.8887 102.939 25.5023 102.092 25.5023C101.218 25.5023 100.547 25.8887 100.096 26.6707C99.7002 27.3147 99.5162 28.0967 99.5162 29.0259C99.5162 29.9275 99.7094 30.7003 100.096 31.3351C100.565 32.1171 101.227 32.5035 102.074 32.5035C102.902 32.5035 103.555 32.1079 104.033 31.3167C104.429 30.6543 104.631 29.8815 104.631 28.9799V28.9799Z" fill="white"></path>
    <path d="M113.97 26.0271C113.758 25.9903 113.528 25.9719 113.28 25.9719C112.516 25.9719 111.918 26.2571 111.504 26.8367C111.145 27.3427 110.961 27.9959 110.961 28.7687V33.9115H108.781V27.1955C108.781 26.0639 108.763 25.0335 108.717 24.1135H110.612L110.695 25.9903H110.759C110.989 25.3463 111.348 24.8219 111.845 24.4355C112.332 24.0859 112.857 23.9111 113.418 23.9111C113.62 23.9111 113.804 23.9295 113.961 23.9479L113.97 26.0271" fill="white"></path>
    <path d="M123.703 28.5472C123.703 28.9336 123.676 29.2648 123.62 29.5316H117.088C117.116 30.4976 117.429 31.2428 118.036 31.7488C118.588 32.1996 119.296 32.4296 120.17 32.4296C121.136 32.4296 122.02 32.2732 122.811 31.9696L123.151 33.4784C122.222 33.8832 121.127 34.0856 119.867 34.0856C118.349 34.0856 117.153 33.6348 116.288 32.7424C115.423 31.85 114.991 30.6448 114.991 29.1452C114.991 27.6732 115.396 26.4404 116.205 25.456C117.052 24.4072 118.192 23.8828 119.628 23.8828C121.035 23.8828 122.112 24.4072 122.829 25.456C123.409 26.3024 123.703 27.3236 123.703 28.5472V28.5472ZM121.624 27.986C121.642 27.342 121.495 26.7808 121.201 26.3116C120.824 25.7044 120.244 25.4008 119.471 25.4008C118.763 25.4008 118.183 25.6952 117.742 26.284C117.383 26.7532 117.162 27.3236 117.098 27.9768L121.624 27.986V27.986Z" fill="white"></path>
    <path d="M48.76 15.4653H47.6192L46.9936 13.5057H44.8224L44.2244 15.4653H43.1204L45.264 8.78613H46.5888L48.76 15.4653ZM46.8004 12.6777L46.2392 10.9297C46.184 10.7549 46.0736 10.3317 45.8988 9.66933H45.8804C45.8068 9.95453 45.7148 10.3685 45.5584 10.9297L45.0064 12.6777H46.8004Z" fill="white"></path>
    <path d="M54.1327 10.6445L52.3111 15.4653H51.2715L49.5051 10.6445H50.6551L51.4739 13.1929C51.6119 13.6161 51.7315 14.0209 51.8235 14.4073H51.8511C51.9339 14.0577 52.0535 13.6529 52.2007 13.1929L53.0103 10.6445H54.1327" fill="white"></path>
    <path d="M58.0151 15.4651L57.9323 14.9131H57.9047C57.5735 15.3547 57.1043 15.5755 56.4971 15.5755C55.6323 15.5755 55.0251 14.9683 55.0251 14.1587C55.0251 12.9719 56.0555 12.3555 57.8403 12.3555V12.2635C57.8403 11.6287 57.4999 11.3159 56.8375 11.3159C56.3591 11.3159 55.9451 11.4355 55.5771 11.6747L55.3563 10.9755C55.7979 10.6995 56.3591 10.5615 57.0123 10.5615C58.2727 10.5615 58.9075 11.2239 58.9075 12.5579V14.3335C58.9075 14.8211 58.9259 15.1983 58.9811 15.4835L58.0151 15.4651V15.4651ZM57.8679 13.0639C56.6811 13.0639 56.0831 13.3491 56.0831 14.0391C56.0831 14.5451 56.3867 14.7935 56.8191 14.7935C57.3619 14.7935 57.8679 14.3795 57.8679 13.8091V13.0639Z" fill="white"></path>
    <path d="M61.2903 9.854C60.9315 9.854 60.6555 9.578 60.6555 9.21C60.6555 8.842 60.9407 8.5752 61.3087 8.5752C61.6767 8.5752 61.9711 8.842 61.9619 9.21C61.9619 9.5964 61.6859 9.854 61.2903 9.854V9.854ZM60.7751 10.6452H61.8423V15.4568H60.7751V10.6452V10.6452Z" fill="white"></path>
    <path d="M63.7468 8.43652H64.814V15.4561H63.7468V8.43652Z" fill="white"></path>
    <path d="M69.3587 15.4646L69.2759 14.9126H69.2483C68.9171 15.3542 68.4479 15.575 67.8407 15.575C66.9759 15.575 66.3687 14.9678 66.3687 14.1582C66.3687 12.9714 67.3991 12.355 69.1839 12.355V12.263C69.1839 11.6282 68.8435 11.3154 68.1811 11.3154C67.7027 11.3154 67.2887 11.435 66.9207 11.6742L66.6999 10.9658C67.1415 10.6898 67.7027 10.5518 68.3559 10.5518C69.6163 10.5518 70.2511 11.2142 70.2511 12.5482V14.3238C70.2511 14.8114 70.2695 15.1886 70.3155 15.4738H69.3587V15.4646V15.4646ZM69.2115 13.0634C68.0247 13.0634 67.4267 13.3486 67.4267 14.0386C67.4267 14.5446 67.7303 14.793 68.1627 14.793C68.7055 14.793 69.2115 14.379 69.2115 13.8086V13.0634Z" fill="white"></path>
    <path d="M74.5936 15.5757C73.9128 15.5757 73.4068 15.2905 73.0756 14.7201H73.0572L72.9928 15.4653H72.082C72.1096 15.0789 72.1188 14.6465 72.1188 14.1681V8.43652H73.1952V11.3529H73.2136C73.5356 10.8193 74.0416 10.5525 74.75 10.5525C75.9092 10.5525 76.7188 11.5461 76.7188 12.9905C76.7188 14.4809 75.8172 15.5757 74.5936 15.5757V15.5757ZM74.3728 11.3897C73.7564 11.3897 73.1952 11.9233 73.1952 12.6685V13.5149C73.1952 14.1773 73.7012 14.7201 74.3544 14.7201C75.1548 14.7201 75.6332 14.0669 75.6332 13.0273C75.6332 12.0521 75.1364 11.3897 74.3728 11.3897V11.3897Z" fill="white"></path>
    <path d="M78.3013 8.43652H79.3685V15.4561H78.3013V8.43652Z" fill="white"></path>
    <path d="M85.1921 13.3126H81.9813C81.9997 14.2234 82.6069 14.7386 83.4993 14.7386C83.9777 14.7386 84.4101 14.6558 84.7965 14.5086L84.9621 15.2538C84.5113 15.4562 83.9777 15.5482 83.3521 15.5482C81.8433 15.5482 80.9509 14.6006 80.9509 13.1194C80.9509 11.6474 81.8617 10.5342 83.2325 10.5342C84.4561 10.5342 85.2381 11.445 85.2381 12.825C85.2381 13.0182 85.2289 13.1838 85.1921 13.3126V13.3126ZM84.2169 12.549C84.2169 11.8038 83.8397 11.2794 83.1589 11.2794C82.5425 11.2794 82.0641 11.813 81.9905 12.549H84.2169Z" fill="white"></path>
    <path d="M91.678 15.575C90.2704 15.575 89.3596 14.5262 89.3596 13.1002C89.3596 11.6098 90.2888 10.5518 91.7608 10.5518C93.15 10.5518 94.0792 11.5546 94.0792 13.0174C94.0792 14.517 93.1224 15.575 91.678 15.575ZM91.724 11.3338C90.9512 11.3338 90.4544 12.0606 90.4544 13.0634C90.4544 14.057 90.9604 14.7746 91.7148 14.7746C92.4692 14.7746 92.9752 14.0018 92.9752 13.0358C92.966 12.0606 92.4784 11.3338 91.724 11.3338V11.3338Z" fill="white"></path>
    <path d="M99.8291 15.465H98.7619V12.6958C98.7619 11.8402 98.4307 11.417 97.7867 11.417C97.1519 11.417 96.7195 11.9598 96.7195 12.5946V15.4558H95.6523V12.0242C95.6523 11.601 95.6431 11.141 95.6155 10.6442H96.5539L96.5999 11.3894H96.6275C96.9127 10.8742 97.5015 10.543 98.1547 10.543C99.1667 10.543 99.8291 11.3158 99.8291 12.5762V15.465Z" fill="white"></path>
  </symbol>
  <symbol xmlns="http://www.w3.org/2000/svg" xmlns:xlink="http://www.w3.org/1999/xlink" viewBox="-449.84925 -222.507 3898.6935 1335.042" id="google_store">
    <defs>
      <linearGradient id="a" y2=".278" x2=".26" y1=".956" x1=".613">
        <stop offset="0%" stop-color="#00A0FF"></stop>
        <stop offset=".657%" stop-color="#00A1FF"></stop>
        <stop offset="26.01%" stop-color="#00BEFF"></stop>
        <stop offset="51.22%" stop-color="#00D2FF"></stop>
        <stop offset="76.04%" stop-color="#00DFFF"></stop>
        <stop offset="100%" stop-color="#00E3FF"></stop>
      </linearGradient>
      <linearGradient id="b" y2=".509" x2="-1.305" y1=".509" x1="1.076">
        <stop offset="0%" stop-color="#FFE000"></stop>
        <stop offset="40.87%" stop-color="#FFBD00"></stop>
        <stop offset="77.54%" stop-color="orange"></stop>
        <stop offset="100%" stop-color="#FF9C00"></stop>
      </linearGradient>
      <linearGradient id="c" y2="-.361" x2="-.505" y1=".691" x1=".867">
        <stop offset="0%" stop-color="#FF3A44"></stop>
        <stop offset="100%" stop-color="#C31162"></stop>
      </linearGradient>
      <linearGradient id="d" y2=".649" x2=".418" y1="1.119" x1="-.193">
        <stop offset="0%" stop-color="#32A071"></stop>
        <stop offset="6.85%" stop-color="#2DA771"></stop>
        <stop offset="47.62%" stop-color="#15CF74"></stop>
        <stop offset="80.09%" stop-color="#06E775"></stop>
        <stop offset="100%" stop-color="#00F076"></stop>
      </linearGradient>
      <linearGradient id="e" y2="-.021" x2="-.501" y1=".695" x1=".862">
        <stop offset="0%" stop-color="#CC2E36"></stop>
        <stop offset="100%" stop-color="#9C0E4E"></stop>
      </linearGradient>
      <linearGradient id="f" y2="4.496" x2="-.663" y1="15.318" x1="3.073">
        <stop offset="0%" stop-color="#008DE0"></stop>
        <stop offset=".657%" stop-color="#008DE0"></stop>
        <stop offset="26.01%" stop-color="#00A7E0"></stop>
        <stop offset="51.22%" stop-color="#00B8E0"></stop>
        <stop offset="76.04%" stop-color="#00C4E0"></stop>
        <stop offset="100%" stop-color="#00C7E0"></stop>
      </linearGradient>
      <linearGradient id="g" y2="1" x2="-2.882" y1="1" x1="1.128">
        <stop offset="0%" stop-color="#E0C500"></stop>
        <stop offset="40.87%" stop-color="#E0A600"></stop>
        <stop offset="77.54%" stop-color="#E09100"></stop>
        <stop offset="100%" stop-color="#E08900"></stop>
      </linearGradient>
      <linearGradient id="h" y2="0" x2="-2.882" y1="0" x1="1.128">
        <stop offset="0%" stop-color="#FFE840"></stop>
        <stop offset="40.87%" stop-color="#FFCE40"></stop>
        <stop offset="77.54%" stop-color="#FFBC40"></stop>
        <stop offset="100%" stop-color="#FFB540"></stop>
      </linearGradient>
      <linearGradient id="i" y2="-10.098" x2="-.657" y1=".234" x1="3.061">
        <stop offset="0%" stop-color="#40B8FF"></stop>
        <stop offset=".657%" stop-color="#40B9FF"></stop>
        <stop offset="26.01%" stop-color="#40CEFF"></stop>
        <stop offset="51.22%" stop-color="#40DDFF"></stop>
        <stop offset="76.04%" stop-color="#40E7FF"></stop>
        <stop offset="100%" stop-color="#40EAFF"></stop>
      </linearGradient>
      <linearGradient id="j" y2=".537" x2=".421" y1=".856" x1="-.188">
        <stop offset="0%" stop-color="#65B895"></stop>
        <stop offset="6.85%" stop-color="#62BD95"></stop>
        <stop offset="47.62%" stop-color="#50DB97"></stop>
        <stop offset="80.09%" stop-color="#44ED98"></stop>
        <stop offset="100%" stop-color="#40F498"></stop>
      </linearGradient>
      <linearGradient gradientUnits="userSpaceOnUse" gradientTransform="scale(.72167 1.38567)" y2="110.924" x2="103.763" y1="380.413" x1="243.89" id="k" xlink:href="#a"></linearGradient>
      <linearGradient gradientUnits="userSpaceOnUse" gradientTransform="scale(1.1083 .90228)" y2="104.456" x2="-265.185" y1="104.456" x1="219.82" id="l" xlink:href="#b"></linearGradient>
      <linearGradient gradientUnits="userSpaceOnUse" gradientTransform="scale(1.13894 .878)" y2="-116.045" x2="-162.26" y1="222.803" x1="279.815" id="m" xlink:href="#c"></linearGradient>
      <linearGradient gradientUnits="userSpaceOnUse" gradientTransform="scale(1.13896 .878)" y2="210.03" x2="134.984" y1="361.335" x1="-62.115" id="n" xlink:href="#d"></linearGradient>
      <linearGradient gradientUnits="userSpaceOnUse" gradientTransform="scale(1.38147 .72387)" y2="-4.388" x2="-133.972" y1="187.683" x1="231.994" id="o" xlink:href="#e"></linearGradient>
      <linearGradient gradientUnits="userSpaceOnUse" gradientTransform="scale(.58803 1.7006)" y2="91.69" x2="-13.255" y1="311.274" x1="62.549" id="p" xlink:href="#f"></linearGradient>
      <linearGradient gradientUnits="userSpaceOnUse" gradientTransform="scale(1.19442 .83723)" y2="112.451" x2="-322.924" y1="112.451" x1="127.112" id="q" xlink:href="#g"></linearGradient>
      <linearGradient gradientUnits="userSpaceOnUse" gradientTransform="scale(1.1944 .83724)" y2=".829" x2="-322.928" y1=".829" x1="127.114" id="r" xlink:href="#h"></linearGradient>
      <linearGradient gradientUnits="userSpaceOnUse" gradientTransform="scale(.58722 1.70294)" y2="-204.589" x2="-13.13" y1="4.878" x1="62.249" id="s" xlink:href="#i"></linearGradient>
      <linearGradient gradientUnits="userSpaceOnUse" gradientTransform="scale(1.38144 .72388)" y2="144.927" x2="113.528" y1="230.7" x1="-49.894" id="t" xlink:href="#j"></linearGradient>
    </defs>
    <g fill="none">
      <path fill="#000" d="M2887.921 890.028H111.074C49.984 890.028 0 839.964 0 778.775V111.254C0 50.064 49.983 0 111.074 0H2887.92c61.09 0 111.074 50.064 111.074 111.254v667.52c0 61.19-49.983 111.254-111.074 111.254"></path>
      <path fill="#A6A6A6" d="M2887.921 0H111.074C49.984 0 0 50.064 0 111.254v667.52c0 61.19 49.983 111.254 111.074 111.254H2887.92c61.09 0 111.074-50.064 111.074-111.253V111.254C2998.995 50.064 2949.012 0 2887.92 0m0 17.8c51.45 0 93.302 41.93 93.302 93.454v667.52c0 51.534-41.853 93.463-93.302 93.463H111.074c-51.44 0-93.302-41.93-93.302-93.462V111.254c0-51.524 41.861-93.453 93.302-93.453H2887.92"></path>
      <path fill="#FFF" d="M1053.39 227.923c0 18.642-5.512 33.487-16.55 44.561-12.539 13.168-28.88 19.757-48.969 19.757-19.238 0-35.595-6.675-49.046-20.044-13.475-13.359-20.2-29.925-20.2-49.69 0-19.774 6.725-36.33 20.2-49.7 13.451-13.358 29.808-20.043 49.046-20.043 9.546 0 18.685 1.87 27.362 5.599 8.677 3.738 15.637 8.7 20.844 14.914l-11.716 11.742c-8.824-10.56-20.973-15.836-36.49-15.836-14.03 0-26.162 4.938-36.401 14.82-10.241 9.892-15.36 22.72-15.36 38.504 0 15.785 5.119 28.612 15.36 38.505 10.239 9.882 22.37 14.819 36.401 14.819 14.884 0 27.293-4.964 37.228-14.906 6.449-6.477 10.178-15.48 11.176-27.041H987.87v-16.036h64.59c.624 3.487.928 6.833.928 10.075"></path>
      <path fill="#FFF" d="M1053.39 227.923h-2.222c-.018 18.217-5.33 32.366-15.9 42.988l-.023.018-.01.018c-12.14 12.714-27.745 19.042-47.365 19.069-18.724-.027-34.397-6.424-47.484-19.392-13.058-12.994-19.515-28.857-19.54-48.117.025-19.269 6.482-35.123 19.54-48.108 13.087-12.977 28.76-19.383 47.484-19.41 9.26 0 18.077 1.81 26.485 5.416 8.417 3.634 15.066 8.396 20.02 14.308l1.701-1.436-1.57-1.573-11.716 11.75 1.57 1.565 1.711-1.424c-9.235-11.083-22.197-16.67-38.2-16.637-14.551-.018-27.351 5.19-37.939 15.447-10.69 10.29-16.061 23.84-16.043 40.102-.018 16.263 5.353 29.812 16.043 40.103 10.588 10.257 23.388 15.464 37.938 15.446 15.377.027 28.482-5.198 38.799-15.558 6.89-6.92 10.796-16.505 11.82-28.423l.207-2.416h-48.604v-11.586h62.368v-2.225l-2.188.391c.608 3.374.895 6.58.895 9.684h4.443c0-3.382-.313-6.858-.964-10.473l-.329-1.827H985.65v20.486h50.625v-2.225l-2.212-.191c-.98 11.196-4.539 19.627-10.535 25.66-9.545 9.525-21.26 14.226-35.657 14.253-13.51-.018-24.973-4.677-34.857-14.194-9.788-9.483-14.657-21.59-14.682-36.905.025-15.315 4.894-27.422 14.682-36.905 9.884-9.517 21.346-14.176 34.857-14.194 15.022.036 26.365 5.007 34.791 15.046l1.562 1.86 13.424-13.463 1.44-1.442-1.311-1.558c-5.458-6.517-12.73-11.69-21.668-15.53-8.955-3.852-18.405-5.782-28.238-5.782-19.749-.017-36.792 6.936-50.616 20.696-13.875 13.733-20.869 30.995-20.85 51.272-.019 20.268 6.975 37.54 20.859 51.281 13.815 13.751 30.858 20.696 50.607 20.678 20.567.018 37.628-6.824 50.575-20.444l-1.607-1.538 1.571 1.574c11.507-11.517 17.216-27.075 17.201-46.135h-2.222m102.395-55.767h-60.7v42.33h54.74v16.042h-54.74v42.33h60.7v16.401h-77.812V155.755h77.812v16.401"></path>
      <path fill="#FFF" d="M1155.784 172.156v-2.225h-62.921v46.78h54.739v11.586l-54.74.006v46.78h60.7v11.951h-73.368V157.98h73.368v14.176h2.222v-2.225 2.225h2.221V153.53h-82.254v137.954h82.254v-20.851h-60.7v-37.88h54.74v-20.492h-54.74v-37.88h60.7v-2.225h-2.221m72.224 117.104h-17.138V172.155h-37.228v-16.401h91.594v16.401h-37.228v117.103"></path>
      <path fill="#FFF" d="M1228.008 289.26v-2.226h-14.917V169.931h-37.227v-11.95h87.15v11.95h-37.227v119.328h2.221v-2.225 2.225h2.222V174.381h37.227V153.53h-96.036v20.85h37.227v117.103h21.582v-2.225h-2.222m103.499.002V155.754h17.121v133.504h-17.121"></path>
      <path fill="#FFF" d="M1331.507 289.26h2.222V157.98h12.677v129.054h-14.899v2.225h2.222-2.222v2.225h19.342V153.53h-21.563v137.954h2.221v-2.225m93.093.001h-17.138V172.155h-37.226v-16.401h91.592v16.401H1424.6v117.103"></path>
      <path fill="#FFF" d="M1424.6 289.26v-2.226h-14.917V169.931h-37.225v-11.95h87.148v11.95h-37.227v119.328h2.221v-2.225 2.225h2.222V174.381h37.227V153.53h-96.034v20.85h37.225v117.103h21.582v-2.225h-2.222m125.532-28.428c9.865 10.003 21.937 15 36.212 15 14.275 0 26.353-4.997 36.203-15 9.875-10.004 14.822-22.792 14.822-38.323 0-15.53-4.947-28.318-14.822-38.322-9.85-10.004-21.928-15.002-36.203-15.002-14.275 0-26.347 4.998-36.212 15.002-9.85 10.004-14.795 22.791-14.795 38.322 0 15.531 4.945 28.319 14.795 38.323zm85.084 11.176c-13.104 13.497-29.4 20.235-48.872 20.235-19.491 0-35.78-6.738-48.855-20.235-13.113-13.482-19.638-29.985-19.638-49.499 0-19.514 6.525-36.02 19.638-49.499 13.076-13.5 29.364-20.244 48.855-20.244 19.369 0 35.621 6.78 48.786 20.331 13.146 13.55 19.724 30.02 19.724 49.412 0 19.514-6.562 36.017-19.638 49.499z"></path>
      <path fill="#FFF" d="M1550.132 260.83l-1.58 1.564c10.232 10.404 22.997 15.689 37.792 15.662 14.786.027 27.568-5.258 37.783-15.662 10.299-10.414 15.479-23.886 15.463-39.887.015-16-5.164-29.473-15.463-39.887-10.215-10.404-22.997-15.688-37.783-15.662-14.795-.026-27.56 5.258-37.792 15.662-10.274 10.414-15.464 23.887-15.437 39.887-.027 16 5.163 29.473 15.437 39.887l1.58-1.564 1.58-1.565c-9.424-9.605-14.136-21.687-14.154-36.758.018-15.07 4.73-27.152 14.153-36.758 9.51-9.603 20.869-14.314 34.633-14.34 13.753.026 25.138 4.737 34.624 14.34 9.441 9.606 14.153 21.688 14.17 36.758-.017 15.07-4.729 27.153-14.17 36.758-9.486 9.604-20.87 14.314-34.624 14.34-13.764-.026-25.123-4.736-34.633-14.34zm85.084 11.176l-1.588-1.546c-12.738 13.072-28.315 19.53-47.284 19.556-18.978-.027-34.555-6.484-47.269-19.556l-.06-.07.06.07c-12.711-13.117-18.984-28.935-19.002-47.953.018-19.018 6.291-34.836 19.002-47.952 12.714-13.073 28.29-19.539 47.269-19.565 18.847.026 34.388 6.519 47.197 19.66 12.756 13.177 19.065 28.97 19.092 47.857-.027 19.018-6.318 34.836-19.005 47.953l1.588 1.546 1.598 1.546c13.466-13.853 20.277-31.037 20.262-51.045.016-19.894-6.822-37.043-20.351-50.958-13.536-13.97-30.492-21.034-50.381-21.01-19.993-.024-37.001 7.007-50.452 20.923v-.01c-13.493 13.863-20.28 31.047-20.262 51.055-.018 20.008 6.769 37.192 20.262 51.054l.06.063-.06-.072c13.451 13.916 30.459 20.932 50.452 20.914 19.984.018 36.992-6.998 50.47-20.914l-1.598-1.546zm43.674 17.254V155.754h20.845l64.778 103.857h.738l-.738-25.728v-78.129h17.139v133.504h-17.877l-67.772-108.89h-.738l.738 25.737v83.153h-17.112"></path>
      <path fill="#FFF" d="M1678.89 289.26h2.222V157.98h17.39l64.778 103.857h4.252l-.798-27.986v-75.87h12.696v129.053h-14.422l-67.772-108.89h-4.252l.797 27.998v80.892h-14.89v2.225h2.221-2.221v2.225h19.333v-85.413l-.737-25.762-2.222.06v2.225h.738v-2.225l-1.884 1.183 68.424 109.932h21.33V153.53h-21.581v80.38l.737 25.762 2.222-.06v-2.225h-.738v2.225l1.884-1.181-65.432-104.901h-24.295v137.954h2.222v-2.225m696.668 378.262h41.452v-278.16h-41.453zm373.363-177.96l-47.517 120.596h-1.422l-49.317-120.597h-44.652l73.953 168.556-42.163 93.758h43.252l113.962-262.314zm-235.077 146.367c-13.595 0-32.522-6.798-32.522-23.624 0-21.47 23.592-29.7 43.94-29.7 18.24 0 26.792 3.936 37.877 9.31-3.221 25.761-25.37 44.014-49.295 44.014zm4.999-152.453c-30.013 0-61.091 13.245-73.953 42.59l36.787 15.384c7.864-15.384 22.504-20.4 37.877-20.4 21.437 0 43.23 12.89 43.585 35.793v2.86c-7.509-4.295-23.57-10.735-43.23-10.735-39.653 0-80.04 21.824-80.04 62.623 0 37.219 32.523 61.198 68.955 61.198 27.88 0 43.23-12.525 52.893-27.195h1.422v21.468h40.009V560.413c0-49.376-36.788-76.938-84.305-76.938zm-256.181 39.946h-58.958v-95.346h58.958c30.99 0 48.584 25.7 48.584 47.672 0 21.556-17.595 47.674-48.584 47.674zm-1.066-134.06h-99.323v278.16h41.43V562.135h57.893c45.94 0 91.102-33.316 91.102-86.388 0-53.07-45.162-86.386-91.102-86.386zm-541.619 246.618c-28.637 0-52.613-24.015-52.613-57 0-33.331 23.976-57.712 52.613-57.712 28.273 0 50.461 24.38 50.461 57.712 0 32.985-22.188 57-50.46 57zm47.597-130.843h-1.432c-9.302-11.11-27.205-21.147-49.748-21.147-47.242 0-90.543 41.58-90.543 94.99 0 53.055 43.3 94.279 90.543 94.279 22.543 0 40.446-10.04 49.748-21.504h1.432v13.62c0 36.211-19.324 55.567-50.46 55.567-25.41 0-41.158-18.288-47.607-33.699l-36.14 15.055c10.378 25.092 37.937 55.923 83.747 55.923 48.672 0 89.83-28.684 89.83-98.582V489.725h-39.37zm67.998 162.385h41.515v-278.17h-41.515zm102.716-91.766c-1.075-36.567 28.273-55.202 49.386-55.202 16.474 0 30.425 8.24 35.068 20.08zm128.84-31.543c-7.865-21.156-31.857-60.223-80.887-60.223-48.672 0-89.11 38.355-89.11 94.634 0 53.055 40.082 94.635 93.762 94.635 43.312 0 68.37-26.528 78.745-41.939l-32.212-21.512c-10.73 15.776-25.413 26.172-46.533 26.172-21.113 0-36.141-9.682-45.81-28.675l126.332-52.34zm-1006.512-31.186v40.147h95.912c-2.863 22.582-10.379 39.07-21.833 50.542-13.953 13.985-35.785 29.396-74.08 29.396-59.053 0-105.217-47.675-105.217-106.822 0-59.146 46.164-106.827 105.218-106.827 31.854 0 55.11 12.549 72.291 28.68l28.273-28.316c-23.976-22.947-55.832-40.511-100.564-40.511-80.886 0-148.884 65.96-148.884 146.974 0 81.015 67.998 146.969 148.884 146.969 43.665 0 76.588-14.332 102.352-41.224 26.485-26.528 34.72-63.806 34.72-93.914 0-9.327-.713-17.923-2.153-25.094zm246.115 122.953c-28.637 0-53.333-23.66-53.333-57.356 0-34.055 24.696-57.356 53.333-57.356 28.626 0 53.322 23.301 53.322 57.356 0 33.697-24.696 57.356-53.322 57.356zm0-151.99c-52.258 0-94.848 39.788-94.848 94.634 0 54.488 42.59 94.635 94.848 94.635 52.247 0 94.837-40.147 94.837-94.635 0-54.846-42.59-94.634-94.837-94.634zm206.89 151.99c-28.625 0-53.324-23.66-53.324-57.356 0-34.055 24.699-57.356 53.325-57.356 28.628 0 53.324 23.301 53.324 57.356 0 33.697-24.696 57.356-53.324 57.356zm0-151.99c-52.255 0-94.836 39.788-94.836 94.634 0 54.488 42.581 94.635 94.837 94.635 52.249 0 94.84-40.147 94.84-94.635 0-54.846-42.591-94.634-94.84-94.634z"></path>
      <path fill="#00C1FF" d="M233.446 169.357c-7.455 6.737-11.905 17.974-11.905 32.89v-3.372 492.21-3.242c0 13.775 3.817 24.413 10.281 31.264l1.65 1.582v.007c5.232 4.729 11.941 7.24 19.63 7.232 7.513 0 15.966-2.399 24.887-7.465l322.452-183.508 110.76-63.041c14.067-8.004 21.964-18.33 23.284-28.848v-.043c-1.32-10.542-9.217-20.86-23.283-28.865l-110.77-63.033L277.99 169.617c-8.94-5.075-17.399-7.483-24.932-7.483-7.68 0-14.38 2.503-19.61 7.223z"></path>
      <path d="M12.047.234l-1.651 1.582C3.932 8.666.115 19.305.115 33.08v-3.242 492.088-3.25c0 14.916 4.45 26.153 11.905 32.89l275.237-275.675L12.047.234" fill="url(#k)" transform="matrix(1 0 0 -1 221.426 720.923)"></path>
      <path d="M92.444.738L.686 92.66l91.75 91.907 110.769-63.032c14.066-8.006 21.963-18.323 23.283-28.866v-.042c-1.32-10.518-9.217-20.845-23.283-28.848L92.445.739" fill="url(#l)" transform="matrix(1 0 0 -1 507.997 537.692)"></path>
      <path d="M20.068.12C12.38.113 5.671 2.625.44 7.353v.007l275.21 275.657 91.758-91.922L44.955 7.586C36.034 2.519 27.581.12 20.068.12" fill="url(#m)" transform="matrix(1 0 0 -1 233.034 728.048)"></path>
      <path d="M275.428.707L.19 276.382c5.232 4.72 11.932 7.223 19.611 7.223 7.533 0 15.993-2.407 24.932-7.483L367.177 92.614 275.427.707" fill="url(#n)" transform="matrix(1 0 0 -1 233.255 445.74)"></path>
      <path d="M22.077.861c-7.688 0-14.406 2.512-19.638 7.24l-.009-.008a.635.635 0 01-.069.06L.93 9.553c-.045.044-.087.095-.14.146l1.65 1.653c5.232-4.728 11.94-7.24 19.63-7.231 7.512 0 15.965 2.398 24.886 7.465l322.452 183.508 2.066-2.07-2.092-1.19L46.955 8.336C38.825 3.72 31.092 1.313 24.107.912a41.848 41.848 0 00-2.03-.05" fill="url(#o)" transform="matrix(1 0 0 -1 231.034 732.048)"></path>
      <path d="M10.396.799C3.932 7.649.115 18.279.115 32.063v3.242c0-13.775 3.817-24.413 10.281-31.264l1.65-1.582-1.65-1.66" fill="url(#p)" transform="matrix(1 0 0 -1 221.426 723.148)"></path>
      <path d="M2.708.169L.642 2.239l110.76 63.04c14.067 8.003 21.964 18.33 23.284 28.848 0-3.86-.86-7.719-2.568-11.475-3.446-7.57-10.352-14.723-20.715-20.624L2.708.168" fill="url(#q)" transform="matrix(1 0 0 -1 599.799 539.192)"></path>
      <path d="M134.686.716c-1.32 10.543-9.217 20.86-23.283 28.866L.633 92.614l2.066 2.07h.009l108.695-61.86c15.508-8.831 23.274-20.468 23.283-32.108" fill="url(#r)" transform="matrix(1 0 0 -1 599.799 445.74)"></path>
      <path d="M.115.234v3.4c0 1.226.033 2.425.096 3.589v.053c0 .016 0 .033.006.051v.131c.669 11.865 4.348 21.12 10.179 27.3l1.624-1.633C4.565 26.387.115 15.15.115.234" fill="url(#s)" transform="matrix(1 0 0 -1 221.426 202.481)"></path>
      <path d="M369.398.66L46.955 184.17c-8.939 5.075-17.398 7.482-24.931 7.482-7.68 0-14.38-2.503-19.611-7.223l-1.624 1.634a29.747 29.747 0 001.58 1.555c.017.018.044.036.061.053 5.19 4.684 11.819 7.187 19.43 7.232h.164c7.533 0 15.992-2.408 24.931-7.485L371.473 2.737l-.009-.007-2.066-2.07" fill="url(#t)" transform="matrix(1 0 0 -1 231.034 353.786)"></path>
    </g>
  </symbol>
  <symbol xmlns="http://www.w3.org/2000/svg" viewBox="0 0 406.065 406.065" id="facebook_logo">
    <linearGradient id="a" gradientUnits="userSpaceOnUse" x1="-1383.689" y1="1177.103" x2="-1382.689" y2="1177.103" gradientTransform="rotate(52.827 136349.564 548347.405) scale(276.6438)">
      <stop offset="0" stop-color="#455e9b"></stop>
      <stop offset="1" stop-color="#5a70b3"></stop>
    </linearGradient>
    <path d="M22.969 144.483v177.765c0 33.643 27.208 60.852 60.847 60.852H322.25c33.641 0 60.848-27.209 60.848-60.852V145.105c-51.462 13.454-112.911 21.27-178.885 21.27-67.007 0-129.314-8.058-181.244-21.892M.055 70.038A74.62 74.62 0 0 0 0 72.882v260.303c0 40.172 32.708 72.881 72.888 72.881H333.18c40.179 0 72.885-32.709 72.885-72.881V72.882c0-.49-.005-.983-.015-1.471v67.114c-3.06.958-6.164 1.897-9.309 2.813v185.867c0 38.336-31.204 69.541-69.539 69.541H78.862c-38.334 0-69.54-31.205-69.54-69.541v-186.56c-3.146-.934-6.25-1.89-9.308-2.866V72.473c.001-.814.014-1.627.041-2.435" fill="url(#a)"></path>
    <path d="M22.969 83.728c0-33.553 27.208-60.845 60.847-60.845H322.25c33.641 0 60.848 27.292 60.848 60.845v238.521c0 33.643-27.207 60.852-60.848 60.852H83.815c-33.639 0-60.847-27.209-60.847-60.852l.001-238.521M9.322 78.86v248.345c0 38.336 31.206 69.541 69.54 69.541h248.341c38.335 0 69.539-31.205 69.539-69.541V78.86c0-38.332-31.204-69.538-69.539-69.538H78.862c-38.334 0-69.54 31.206-69.54 69.538" fill="#8091c1"></path>
    <path d="M336.51 0H68.783c-1.8 0-3.578.091-5.345.226C28.502 4.782 1.239 34.169.055 70.038 1.554 31.175 33.66 0 72.887 0H333.18c39.688 0 72.085 31.912 72.87 71.411v-.141c-.587-35.795-27.114-65.417-61.567-70.8-2.618-.3-5.275-.47-7.973-.47" fill="#d6ddf0"></path>
    <linearGradient id="b" gradientUnits="userSpaceOnUse" x1="-1383.689" y1="1176.838" x2="-1382.689" y2="1176.838" gradientTransform="rotate(52.827 136349.564 548347.405) scale(276.6438)">
      <stop offset="0" stop-color="#697bb0"></stop>
      <stop offset="1" stop-color="#7688c2"></stop>
    </linearGradient>
    <path d="M322.249 22.882H83.815c-33.639 0-60.847 27.292-60.847 60.845v60.755c51.93 13.834 114.236 21.892 181.242 21.892 65.974 0 127.423-7.816 178.885-21.27V83.728c.001-33.553-27.206-60.846-60.846-60.846M333.18 0H72.887C33.66 0 1.554 31.175.055 70.038c-.026.808-.04 1.621-.04 2.435v65.305a465.32 465.32 0 0 0 9.308 2.866V78.86c0-38.332 31.206-69.538 69.54-69.538h248.341c38.335 0 69.539 31.206 69.539 69.538v62.478a479.45 479.45 0 0 0 9.309-2.813V71.411C405.265 31.912 372.868 0 333.18 0" fill="url(#b)"></path>
    <path d="M327.203 9.322H78.862c-38.334 0-69.54 31.206-69.54 69.538v61.784a503.287 503.287 0 0 0 13.646 3.838V83.728c0-33.553 27.208-60.845 60.847-60.845h238.434c33.641 0 60.848 27.292 60.848 60.845v61.378a509.178 509.178 0 0 0 13.646-3.767V78.86c-.001-38.332-31.205-69.538-69.54-69.538" fill="#8d9fcb"></path>
    <path d="M311.982 109.705h26.031v-52.68h-56.437c-34.275 0-62.062 27.786-62.062 62.062v31.515h-44.521v52.681h44.521v162.21h69.238v-162.21h49.259v-52.681h-49.259V132.93c.004-12.826 10.403-23.225 23.23-23.225z" fill="#fff"></path>
  </symbol>
  <symbol xmlns="http://www.w3.org/2000/svg" viewBox="0 0 3364.7 3364.7" id="instagram-2-1">
    <defs>
      <radialGradient id="0" cx="217.76" cy="3290.99" r="4271.92" gradientUnits="userSpaceOnUse">
        <stop offset=".09" stop-color="#fa8f21"></stop>
        <stop offset=".78" stop-color="#d82d7e"></stop>
      </radialGradient>
      <radialGradient id="1" cx="2330.61" cy="3182.95" r="3759.33" gradientUnits="userSpaceOnUse">
        <stop offset=".64" stop-color="#8c3aaa" stop-opacity="0"></stop>
        <stop offset="1" stop-color="#8c3aaa"></stop>
      </radialGradient>
    </defs>
    <path d="M853.2,3352.8c-200.1-9.1-308.8-42.4-381.1-70.6-95.8-37.3-164.1-81.7-236-153.5S119.7,2988.6,82.6,2892.8c-28.2-72.3-61.5-181-70.6-381.1C2,2295.4,0,2230.5,0,1682.5s2.2-612.8,11.9-829.3C21,653.1,54.5,544.6,82.5,472.1,119.8,376.3,164.3,308,236,236c71.8-71.8,140.1-116.4,236-153.5C544.3,54.3,653,21,853.1,11.9,1069.5,2,1134.5,0,1682.3,0c548,0,612.8,2.2,829.3,11.9,200.1,9.1,308.6,42.6,381.1,70.6,95.8,37.1,164.1,81.7,236,153.5s116.2,140.2,153.5,236c28.2,72.3,61.5,181,70.6,381.1,9.9,216.5,11.9,281.3,11.9,829.3,0,547.8-2,612.8-11.9,829.3-9.1,200.1-42.6,308.8-70.6,381.1-37.3,95.8-81.7,164.1-153.5,235.9s-140.2,116.2-236,153.5c-72.3,28.2-181,61.5-381.1,70.6-216.3,9.9-281.3,11.9-829.3,11.9-547.8,0-612.8-1.9-829.1-11.9" fill="url(#0)"></path>
    <path d="M853.2,3352.8c-200.1-9.1-308.8-42.4-381.1-70.6-95.8-37.3-164.1-81.7-236-153.5S119.7,2988.6,82.6,2892.8c-28.2-72.3-61.5-181-70.6-381.1C2,2295.4,0,2230.5,0,1682.5s2.2-612.8,11.9-829.3C21,653.1,54.5,544.6,82.5,472.1,119.8,376.3,164.3,308,236,236c71.8-71.8,140.1-116.4,236-153.5C544.3,54.3,653,21,853.1,11.9,1069.5,2,1134.5,0,1682.3,0c548,0,612.8,2.2,829.3,11.9,200.1,9.1,308.6,42.6,381.1,70.6,95.8,37.1,164.1,81.7,236,153.5s116.2,140.2,153.5,236c28.2,72.3,61.5,181,70.6,381.1,9.9,216.5,11.9,281.3,11.9,829.3,0,547.8-2,612.8-11.9,829.3-9.1,200.1-42.6,308.8-70.6,381.1-37.3,95.8-81.7,164.1-153.5,235.9s-140.2,116.2-236,153.5c-72.3,28.2-181,61.5-381.1,70.6-216.3,9.9-281.3,11.9-829.3,11.9-547.8,0-612.8-1.9-829.1-11.9" fill="url(#1)"></path>
    <path d="M1269.25,1689.52c0-230.11,186.49-416.7,416.6-416.7s416.7,186.59,416.7,416.7-186.59,416.7-416.7,416.7-416.6-186.59-416.6-416.7m-225.26,0c0,354.5,287.36,641.86,641.86,641.86s641.86-287.36,641.86-641.86-287.36-641.86-641.86-641.86S1044,1335,1044,1689.52m1159.13-667.31a150,150,0,1,0,150.06-149.94h-0.06a150.07,150.07,0,0,0-150,149.94M1180.85,2707c-121.87-5.55-188.11-25.85-232.13-43-58.36-22.72-100-49.78-143.78-93.5s-70.88-85.32-93.5-143.68c-17.16-44-37.46-110.26-43-232.13-6.06-131.76-7.27-171.34-7.27-505.15s1.31-373.28,7.27-505.15c5.55-121.87,26-188,43-232.13,22.72-58.36,49.78-100,93.5-143.78s85.32-70.88,143.78-93.5c44-17.16,110.26-37.46,232.13-43,131.76-6.06,171.34-7.27,505-7.27S2059.13,666,2191,672c121.87,5.55,188,26,232.13,43,58.36,22.62,100,49.78,143.78,93.5s70.78,85.42,93.5,143.78c17.16,44,37.46,110.26,43,232.13,6.06,131.87,7.27,171.34,7.27,505.15s-1.21,373.28-7.27,505.15c-5.55,121.87-25.95,188.11-43,232.13-22.72,58.36-49.78,100-93.5,143.68s-85.42,70.78-143.78,93.5c-44,17.16-110.26,37.46-232.13,43-131.76,6.06-171.34,7.27-505.15,7.27s-373.28-1.21-505-7.27M1170.5,447.09c-133.07,6.06-224,27.16-303.41,58.06-82.19,31.91-151.86,74.72-221.43,144.18S533.39,788.47,501.48,870.76c-30.9,79.46-52,170.34-58.06,303.41-6.16,133.28-7.57,175.89-7.57,515.35s1.41,382.07,7.57,515.35c6.06,133.08,27.16,223.95,58.06,303.41,31.91,82.19,74.62,152,144.18,221.43s139.14,112.18,221.43,144.18c79.56,30.9,170.34,52,303.41,58.06,133.35,6.06,175.89,7.57,515.35,7.57s382.07-1.41,515.35-7.57c133.08-6.06,223.95-27.16,303.41-58.06,82.19-32,151.86-74.72,221.43-144.18s112.18-139.24,144.18-221.43c30.9-79.46,52.1-170.34,58.06-303.41,6.06-133.38,7.47-175.89,7.47-515.35s-1.41-382.07-7.47-515.35c-6.06-133.08-27.16-224-58.06-303.41-32-82.19-74.72-151.86-144.18-221.43S2586.8,537.06,2504.71,505.15c-79.56-30.9-170.44-52.1-303.41-58.06C2068,441,2025.41,439.52,1686,439.52s-382.1,1.41-515.45,7.57" fill="#fff"></path>
  </symbol>
  <symbol fill="none" xmlns="http://www.w3.org/2000/svg" viewBox="0 0 55 35" id="eye_open">
    <path d="M35.7428 17.0717C35.7428 21.5999 32.0457 25.2708 27.4851 25.2708C22.9245 25.2708 19.2274 21.5999 19.2274 17.0717C19.2274 12.5434 22.9245 8.87262 27.4851 8.87262C32.0457 8.87257 35.7428 12.5435 35.7428 17.0717ZM27.5 0C22.778 0.0217075 17.8835 1.21306 13.2502 3.49396C9.81008 5.25725 6.45746 7.74502 3.54722 10.8157C2.11787 12.3831 0.294754 14.6528 0 17.0744C0.0348333 19.172 2.20596 21.7611 3.54722 23.3331C6.27628 26.2831 9.54158 28.7014 13.2502 30.6566C17.571 32.8298 22.3535 34.081 27.5 34.1506C32.2265 34.1285 37.1199 32.9234 41.748 30.6566C45.1882 28.8933 48.5425 26.4037 51.4528 23.3331C52.8821 21.7656 54.7052 19.4959 55 17.0744C54.9652 14.9767 52.794 12.3875 51.4528 10.8156C48.7237 7.86553 45.4567 5.44906 41.748 3.49386C37.4295 1.32235 32.6353 0.0797525 27.5 0ZM27.4965 4.23928C34.652 4.23928 40.4525 9.9865 40.4525 17.0762C40.4525 24.1659 34.652 29.9131 27.4965 29.9131C20.3411 29.9131 14.5406 24.1658 14.5406 17.0762C14.5406 9.9865 20.3411 4.23928 27.4965 4.23928Z" fill="black"></path>
  </symbol>
  <symbol fill="none" xmlns="http://www.w3.org/2000/svg" viewBox="0 0 517 900" id="iphone_white">
    <g filter="url(#filter0_d_2_373)">
      <path d="M476.849 219.473C476.837 219.438 476.826 219.392 476.814 219.357C476.721 219.101 476.581 218.868 476.418 218.647C476.395 218.612 476.372 218.589 476.348 218.566C475.976 218.112 475.464 217.786 474.882 217.647C474.673 217.6 474.452 217.554 474.231 217.554H473.393V98.1898C473.393 69.3466 470.112 51.4985 452.183 33.9296C443.84 25.7502 428.133 16 400.581 16H115.849C88.3319 16 72.6013 25.7502 64.259 33.9296C46.3411 51.4868 43.06 69.3466 43.06 98.1898V134.154H42.0012C41.8383 134.154 41.6871 134.212 41.5358 134.247V134.212C41.4776 134.224 41.4427 134.258 41.3846 134.27C41.2799 134.305 41.1868 134.351 41.0821 134.398C40.9657 134.456 40.861 134.538 40.7563 134.619C40.6748 134.677 40.5934 134.747 40.5236 134.817C40.4189 134.933 40.3491 135.061 40.2676 135.189C40.2327 135.259 40.1745 135.329 40.1513 135.41C40.0582 135.631 40 135.876 40 136.132V165.208C40 165.464 40.0582 165.708 40.1513 165.929C40.1745 166.01 40.2327 166.069 40.2676 166.15C40.3374 166.278 40.4189 166.406 40.5236 166.522C40.5934 166.592 40.6632 166.662 40.7563 166.72C40.861 166.802 40.9541 166.871 41.0821 166.941C41.1751 166.988 41.2799 167.034 41.3846 167.069C41.4311 167.081 41.4776 167.116 41.5358 167.127V167.092C41.6871 167.127 41.8383 167.186 42.0012 167.186H43.06V195.819H42.0012C41.8383 195.819 41.6871 195.878 41.5358 195.912V195.878C41.4776 195.889 41.4427 195.924 41.3846 195.936C41.2799 195.971 41.1868 196.017 41.0821 196.064C40.9657 196.122 40.861 196.203 40.7563 196.285C40.6748 196.355 40.5934 196.413 40.5236 196.483C40.4189 196.599 40.3491 196.727 40.2676 196.855C40.2327 196.925 40.1745 196.994 40.1513 197.076C40.0582 197.297 40 197.541 40 197.797V256.356C40 256.612 40.0582 256.845 40.1513 257.078C40.1745 257.159 40.2327 257.217 40.2676 257.299C40.3374 257.438 40.4189 257.566 40.5236 257.671C40.5934 257.753 40.6632 257.811 40.7563 257.869C40.861 257.962 40.9541 258.02 41.0821 258.09C41.1751 258.148 41.2799 258.183 41.3846 258.218C41.4311 258.241 41.4776 258.265 41.5242 258.276V258.241C41.6754 258.276 41.8267 258.334 41.9896 258.334H43.0484V274.879H42.0012C41.8383 274.879 41.6871 274.938 41.5358 274.972V274.938C41.4776 274.949 41.4427 274.984 41.3846 274.996C41.2799 275.031 41.1868 275.077 41.0821 275.124C40.9657 275.182 40.861 275.263 40.7563 275.345C40.6748 275.415 40.5934 275.473 40.5236 275.543C40.4189 275.659 40.3491 275.787 40.2676 275.915C40.2327 275.985 40.1745 276.054 40.1513 276.136C40.0582 276.357 40 276.601 40 276.857V335.416C40 335.672 40.0582 335.905 40.1513 336.138C40.1745 336.219 40.2327 336.277 40.2676 336.359C40.3374 336.498 40.4189 336.626 40.5236 336.731C40.5934 336.813 40.6632 336.871 40.7563 336.929C40.861 337.022 40.9541 337.08 41.0821 337.15C41.1751 337.208 41.2799 337.243 41.3846 337.278C41.4311 337.301 41.4776 337.325 41.5242 337.336V337.301C41.6754 337.336 41.8267 337.394 41.9896 337.394H43.0484V800.003C43.0484 828.846 46.3295 846.694 64.2474 864.263C72.5897 872.443 88.3086 882.181 115.849 882.181H400.581C428.121 882.181 443.84 872.431 452.183 864.263C470.112 846.694 473.393 828.835 473.393 800.003V316.044H474.231C474.452 316.044 474.673 316.009 474.882 315.963C475.464 315.823 475.976 315.486 476.348 315.043C476.372 315.02 476.395 314.985 476.418 314.962C476.581 314.753 476.721 314.508 476.814 314.252C476.826 314.206 476.837 314.171 476.849 314.136C476.942 313.868 477 313.589 477 313.287V220.323C477 220.032 476.942 219.741 476.849 219.473Z" fill="#F9F6F0"></path>
      <path d="M115.86 872.803L115.837 862.076V872.803C91.5081 872.803 77.9649 864.531 70.8908 857.585C55.2766 842.284 52.5308 826.856 52.5308 800.084V98.1896C52.5308 71.4291 55.2766 55.9894 70.8908 40.6893C77.9649 33.7548 91.5197 25.4707 115.849 25.4707H400.581C424.933 25.4707 438.476 33.7432 445.55 40.6893C461.165 55.9894 463.91 71.4174 463.91 98.1896V800.084C463.91 826.845 461.165 842.273 445.55 857.585C438.476 864.519 424.933 872.803 400.593 872.803H115.86Z" fill="black"></path>
      <g opacity="0.2">
        <rect x="230.826" y="47.4141" width="54.6846" height="8.14452" rx="4.07226" fill="white"></rect>
        <circle cx="305.291" cy="52.0679" r="6.98102" fill="white"></circle>
      </g>
      <mask id="mask0_2_373" maskUnits="userSpaceOnUse" x="71" y="44" width="376" height="812">
        <path d="M433.106 54.0309C428.44 49.4523 419.074 44 400.876 44H368.401C366.749 44.2097 364.352 45.2116 364.119 49.1727C363.793 54.625 363.119 61.8133 357.72 67.3471C353.554 71.6111 348.179 73.6383 342.582 73.6383C330.493 73.6383 187.388 73.6383 175.299 73.6383C169.702 73.6383 164.315 71.6111 160.149 67.3471C154.75 61.8133 154.087 54.625 153.761 49.1727C153.529 45.2 151.12 44.2097 149.479 44H116.132C97.9459 44 88.5677 49.4523 83.9135 54.0309C72.9645 64.7841 71.0098 75.048 71.0098 98.5931V801.407C71.0098 824.94 72.9529 835.216 83.9135 845.969C88.5793 850.536 97.9459 856 116.144 856H400.887C419.085 856 428.452 850.548 433.106 845.969C444.067 835.216 446.01 824.94 446.01 801.407V98.5931C446.01 75.0596 444.067 64.7841 433.106 54.0309Z" fill="#494949"></path>
      </mask>
      <g mask="url(#mask0_2_373)">
        <rect x="71.0098" y="44" width="375" height="812" fill="#F9F6F0"></rect>
      </g>
      <rect x="190" y="840.991" width="138" height="5" rx="2.5" fill="black"></rect>
    </g>
    <defs>
      <filter id="filter0_d_2_373" x="0" y="-4" width="517" height="946.182" filterUnits="userSpaceOnUse" color-interpolation-filters="sRGB">
        <feFlood flood-opacity="0" result="BackgroundImageFix"></feFlood>
        <feColorMatrix in="SourceAlpha" type="matrix" values="0 0 0 0 0 0 0 0 0 0 0 0 0 0 0 0 0 0 127 0" result="hardAlpha"></feColorMatrix>
        <feOffset dy="20"></feOffset>
        <feGaussianBlur stdDeviation="20"></feGaussianBlur>
        <feColorMatrix type="matrix" values="0 0 0 0 0 0 0 0 0 0 0 0 0 0 0 0 0 0 0.25 0"></feColorMatrix>
        <feBlend mode="normal" in2="BackgroundImageFix" result="effect1_dropShadow_2_373"></feBlend>
        <feBlend mode="normal" in="SourceGraphic" in2="effect1_dropShadow_2_373" result="shape"></feBlend>
      </filter>
    </defs>
  </symbol>
  <symbol fill="none" xmlns="http://www.w3.org/2000/svg" viewBox="0 0 517 900" id="iphone_green">
    <g filter="url(#filter0_d_2_474)">
      <path d="M476.849 219.473C476.837 219.438 476.826 219.392 476.814 219.357C476.721 219.101 476.581 218.868 476.418 218.647C476.395 218.612 476.372 218.589 476.348 218.566C475.976 218.112 475.464 217.786 474.882 217.647C474.673 217.6 474.452 217.554 474.231 217.554H473.393V98.1898C473.393 69.3466 470.112 51.4985 452.183 33.9296C443.84 25.7502 428.133 16 400.581 16H115.849C88.3319 16 72.6013 25.7502 64.259 33.9296C46.3411 51.4868 43.06 69.3466 43.06 98.1898V134.154H42.0012C41.8383 134.154 41.6871 134.212 41.5358 134.247V134.212C41.4776 134.224 41.4427 134.258 41.3846 134.27C41.2799 134.305 41.1868 134.351 41.0821 134.398C40.9657 134.456 40.861 134.538 40.7563 134.619C40.6748 134.677 40.5934 134.747 40.5236 134.817C40.4189 134.933 40.3491 135.061 40.2676 135.189C40.2327 135.259 40.1745 135.329 40.1513 135.41C40.0582 135.631 40 135.876 40 136.132V165.208C40 165.464 40.0582 165.708 40.1513 165.929C40.1745 166.01 40.2327 166.069 40.2676 166.15C40.3374 166.278 40.4189 166.406 40.5236 166.522C40.5934 166.592 40.6632 166.662 40.7563 166.72C40.861 166.802 40.9541 166.871 41.0821 166.941C41.1751 166.988 41.2799 167.034 41.3846 167.069C41.4311 167.081 41.4776 167.116 41.5358 167.127V167.092C41.6871 167.127 41.8383 167.186 42.0012 167.186H43.06V195.819H42.0012C41.8383 195.819 41.6871 195.878 41.5358 195.912V195.878C41.4776 195.889 41.4427 195.924 41.3846 195.936C41.2799 195.971 41.1868 196.017 41.0821 196.064C40.9657 196.122 40.861 196.203 40.7563 196.285C40.6748 196.355 40.5934 196.413 40.5236 196.483C40.4189 196.599 40.3491 196.727 40.2676 196.855C40.2327 196.925 40.1745 196.994 40.1513 197.076C40.0582 197.297 40 197.541 40 197.797V256.356C40 256.612 40.0582 256.845 40.1513 257.078C40.1745 257.159 40.2327 257.217 40.2676 257.299C40.3374 257.438 40.4189 257.566 40.5236 257.671C40.5934 257.753 40.6632 257.811 40.7563 257.869C40.861 257.962 40.9541 258.02 41.0821 258.09C41.1751 258.148 41.2799 258.183 41.3846 258.218C41.4311 258.241 41.4776 258.265 41.5242 258.276V258.241C41.6754 258.276 41.8267 258.334 41.9896 258.334H43.0484V274.879H42.0012C41.8383 274.879 41.6871 274.938 41.5358 274.972V274.938C41.4776 274.949 41.4427 274.984 41.3846 274.996C41.2799 275.031 41.1868 275.077 41.0821 275.124C40.9657 275.182 40.861 275.263 40.7563 275.345C40.6748 275.415 40.5934 275.473 40.5236 275.543C40.4189 275.659 40.3491 275.787 40.2676 275.915C40.2327 275.985 40.1745 276.054 40.1513 276.136C40.0582 276.357 40 276.601 40 276.857V335.416C40 335.672 40.0582 335.905 40.1513 336.138C40.1745 336.219 40.2327 336.277 40.2676 336.359C40.3374 336.498 40.4189 336.626 40.5236 336.731C40.5934 336.813 40.6632 336.871 40.7563 336.929C40.861 337.022 40.9541 337.08 41.0821 337.15C41.1751 337.208 41.2799 337.243 41.3846 337.278C41.4311 337.301 41.4776 337.325 41.5242 337.336V337.301C41.6754 337.336 41.8267 337.394 41.9896 337.394H43.0484V800.003C43.0484 828.846 46.3295 846.694 64.2474 864.263C72.5897 872.443 88.3086 882.181 115.849 882.181H400.581C428.121 882.181 443.84 872.431 452.183 864.263C470.112 846.694 473.393 828.835 473.393 800.003V316.044H474.231C474.452 316.044 474.673 316.009 474.882 315.963C475.464 315.823 475.976 315.486 476.348 315.043C476.372 315.02 476.395 314.985 476.418 314.962C476.581 314.753 476.721 314.508 476.814 314.252C476.826 314.206 476.837 314.171 476.849 314.136C476.942 313.868 477 313.589 477 313.287V220.323C477 220.032 476.942 219.741 476.849 219.473Z" fill="#B7DECE"></path>
      <path d="M115.86 872.803L115.837 862.076V872.803C91.5081 872.803 77.9649 864.531 70.8908 857.585C55.2766 842.284 52.5308 826.856 52.5308 800.084V98.1896C52.5308 71.4291 55.2766 55.9894 70.8908 40.6893C77.9649 33.7548 91.5197 25.4707 115.849 25.4707H400.581C424.933 25.4707 438.476 33.7432 445.55 40.6893C461.165 55.9894 463.91 71.4174 463.91 98.1896V800.084C463.91 826.845 461.165 842.273 445.55 857.585C438.476 864.519 424.933 872.803 400.593 872.803H115.86Z" fill="black"></path>
      <g opacity="0.2">
        <rect x="230.826" y="47.4141" width="54.6846" height="8.14452" rx="4.07226" fill="white"></rect>
        <circle cx="305.291" cy="52.0679" r="6.98102" fill="white"></circle>
      </g>
      <mask id="mask0_2_474" maskUnits="userSpaceOnUse" x="71" y="44" width="376" height="812">
        <path d="M433.106 54.0309C428.44 49.4523 419.074 44 400.876 44H368.401C366.749 44.2097 364.352 45.2116 364.119 49.1727C363.793 54.625 363.119 61.8133 357.72 67.3471C353.554 71.6111 348.179 73.6383 342.582 73.6383C330.493 73.6383 187.388 73.6383 175.299 73.6383C169.702 73.6383 164.315 71.6111 160.149 67.3471C154.75 61.8133 154.087 54.625 153.761 49.1727C153.529 45.2 151.12 44.2097 149.479 44H116.132C97.9459 44 88.5677 49.4523 83.9135 54.0309C72.9645 64.7841 71.0098 75.048 71.0098 98.5931V801.407C71.0098 824.94 72.9529 835.216 83.9135 845.969C88.5793 850.536 97.9459 856 116.144 856H400.887C419.085 856 428.452 850.548 433.106 845.969C444.067 835.216 446.01 824.94 446.01 801.407V98.5931C446.01 75.0596 444.067 64.7841 433.106 54.0309Z" fill="#494949"></path>
      </mask>
      <g mask="url(#mask0_2_474)">
        <rect x="71.0098" y="44" width="375" height="812" fill="#B7DECE"></rect>
      </g>
      <rect x="190" y="840.991" width="138" height="5" rx="2.5" fill="black"></rect>
    </g>
    <defs>
      <filter id="filter0_d_2_474" x="0" y="-4" width="517" height="946.182" filterUnits="userSpaceOnUse" color-interpolation-filters="sRGB">
        <feFlood flood-opacity="0" result="BackgroundImageFix"></feFlood>
        <feColorMatrix in="SourceAlpha" type="matrix" values="0 0 0 0 0 0 0 0 0 0 0 0 0 0 0 0 0 0 127 0" result="hardAlpha"></feColorMatrix>
        <feOffset dy="20"></feOffset>
        <feGaussianBlur stdDeviation="20"></feGaussianBlur>
        <feColorMatrix type="matrix" values="0 0 0 0 0 0 0 0 0 0 0 0 0 0 0 0 0 0 0.25 0"></feColorMatrix>
        <feBlend mode="normal" in2="BackgroundImageFix" result="effect1_dropShadow_2_474"></feBlend>
        <feBlend mode="normal" in="SourceGraphic" in2="effect1_dropShadow_2_474" result="shape"></feBlend>
      </filter>
    </defs>
  </symbol>
  <symbol fill="none" xmlns="http://www.w3.org/2000/svg" viewBox="0 0 517 900" id="iphone_yellow">
    <g filter="url(#filter0_d_2_374)">
      <path d="M476.849 219.473C476.837 219.438 476.826 219.392 476.814 219.357C476.721 219.101 476.581 218.868 476.418 218.647C476.395 218.612 476.372 218.589 476.348 218.566C475.976 218.112 475.464 217.786 474.882 217.647C474.673 217.6 474.452 217.554 474.231 217.554H473.393V98.1898C473.393 69.3466 470.112 51.4985 452.183 33.9296C443.84 25.7502 428.133 16 400.581 16H115.849C88.3319 16 72.6013 25.7502 64.259 33.9296C46.3411 51.4868 43.06 69.3466 43.06 98.1898V134.154H42.0012C41.8383 134.154 41.6871 134.212 41.5358 134.247V134.212C41.4776 134.224 41.4427 134.258 41.3846 134.27C41.2799 134.305 41.1868 134.351 41.0821 134.398C40.9657 134.456 40.861 134.538 40.7563 134.619C40.6748 134.677 40.5934 134.747 40.5236 134.817C40.4189 134.933 40.3491 135.061 40.2676 135.189C40.2327 135.259 40.1745 135.329 40.1513 135.41C40.0582 135.631 40 135.876 40 136.132V165.208C40 165.464 40.0582 165.708 40.1513 165.929C40.1745 166.01 40.2327 166.069 40.2676 166.15C40.3374 166.278 40.4189 166.406 40.5236 166.522C40.5934 166.592 40.6632 166.662 40.7563 166.72C40.861 166.802 40.9541 166.871 41.0821 166.941C41.1751 166.988 41.2799 167.034 41.3846 167.069C41.4311 167.081 41.4776 167.116 41.5358 167.127V167.092C41.6871 167.127 41.8383 167.186 42.0012 167.186H43.06V195.819H42.0012C41.8383 195.819 41.6871 195.878 41.5358 195.912V195.878C41.4776 195.889 41.4427 195.924 41.3846 195.936C41.2799 195.971 41.1868 196.017 41.0821 196.064C40.9657 196.122 40.861 196.203 40.7563 196.285C40.6748 196.355 40.5934 196.413 40.5236 196.483C40.4189 196.599 40.3491 196.727 40.2676 196.855C40.2327 196.925 40.1745 196.994 40.1513 197.076C40.0582 197.297 40 197.541 40 197.797V256.356C40 256.612 40.0582 256.845 40.1513 257.078C40.1745 257.159 40.2327 257.217 40.2676 257.299C40.3374 257.438 40.4189 257.566 40.5236 257.671C40.5934 257.753 40.6632 257.811 40.7563 257.869C40.861 257.962 40.9541 258.02 41.0821 258.09C41.1751 258.148 41.2799 258.183 41.3846 258.218C41.4311 258.241 41.4776 258.265 41.5242 258.276V258.241C41.6754 258.276 41.8267 258.334 41.9896 258.334H43.0484V274.879H42.0012C41.8383 274.879 41.6871 274.938 41.5358 274.972V274.938C41.4776 274.949 41.4427 274.984 41.3846 274.996C41.2799 275.031 41.1868 275.077 41.0821 275.124C40.9657 275.182 40.861 275.263 40.7563 275.345C40.6748 275.415 40.5934 275.473 40.5236 275.543C40.4189 275.659 40.3491 275.787 40.2676 275.915C40.2327 275.985 40.1745 276.054 40.1513 276.136C40.0582 276.357 40 276.601 40 276.857V335.416C40 335.672 40.0582 335.905 40.1513 336.138C40.1745 336.219 40.2327 336.277 40.2676 336.359C40.3374 336.498 40.4189 336.626 40.5236 336.731C40.5934 336.813 40.6632 336.871 40.7563 336.929C40.861 337.022 40.9541 337.08 41.0821 337.15C41.1751 337.208 41.2799 337.243 41.3846 337.278C41.4311 337.301 41.4776 337.325 41.5242 337.336V337.301C41.6754 337.336 41.8267 337.394 41.9896 337.394H43.0484V800.003C43.0484 828.846 46.3295 846.694 64.2474 864.263C72.5897 872.443 88.3086 882.181 115.849 882.181H400.581C428.121 882.181 443.84 872.431 452.183 864.263C470.112 846.694 473.393 828.835 473.393 800.003V316.044H474.231C474.452 316.044 474.673 316.009 474.882 315.963C475.464 315.823 475.976 315.486 476.348 315.043C476.372 315.02 476.395 314.985 476.418 314.962C476.581 314.753 476.721 314.508 476.814 314.252C476.826 314.206 476.837 314.171 476.849 314.136C476.942 313.868 477 313.589 477 313.287V220.323C477 220.032 476.942 219.741 476.849 219.473Z" fill="#FCE68F"></path>
      <path d="M115.86 872.803L115.837 862.076V872.803C91.5081 872.803 77.9649 864.531 70.8908 857.585C55.2766 842.284 52.5308 826.856 52.5308 800.084V98.1896C52.5308 71.4291 55.2766 55.9894 70.8908 40.6893C77.9649 33.7548 91.5197 25.4707 115.849 25.4707H400.581C424.933 25.4707 438.476 33.7432 445.55 40.6893C461.165 55.9894 463.91 71.4174 463.91 98.1896V800.084C463.91 826.845 461.165 842.273 445.55 857.585C438.476 864.519 424.933 872.803 400.593 872.803H115.86Z" fill="black"></path>
      <g opacity="0.2">
        <rect x="230.826" y="47.4141" width="54.6846" height="8.14452" rx="4.07226" fill="white"></rect>
        <circle cx="305.291" cy="52.0679" r="6.98102" fill="white"></circle>
      </g>
      <mask id="mask0_2_374" maskUnits="userSpaceOnUse" x="70" y="43" width="375" height="812">
        <path d="M432.096 53.0309C427.43 48.4523 418.064 43 399.866 43H367.391C365.739 43.2097 363.342 44.2116 363.109 48.1727C362.784 53.625 362.109 60.8133 356.71 66.3471C352.544 70.6111 347.169 72.6383 341.572 72.6383C329.483 72.6383 186.378 72.6383 174.289 72.6383C168.692 72.6383 163.305 70.6111 159.139 66.3471C153.741 60.8133 153.077 53.625 152.752 48.1727C152.519 44.2 150.11 43.2097 148.47 43H115.122C96.9361 43 87.5579 48.4523 82.9038 53.0309C71.9548 63.7841 70 74.048 70 97.5931V800.407C70 823.94 71.9431 834.216 82.9038 844.969C87.5696 849.536 96.9361 855 115.134 855H399.878C418.076 855 427.442 849.548 432.096 844.969C443.057 834.216 445 823.94 445 800.407V97.5931C445 74.0596 443.057 63.7841 432.096 53.0309Z" fill="#494949"></path>
      </mask>
      <g mask="url(#mask0_2_374)">
        <rect x="70" y="43" width="375" height="812" fill="#FCE68F"></rect>
      </g>
      <rect x="190" y="840.991" width="138" height="5" rx="2.5" fill="black"></rect>
    </g>
    <defs>
      <filter id="filter0_d_2_374" x="0" y="-4" width="517" height="946.182" filterUnits="userSpaceOnUse" color-interpolation-filters="sRGB">
        <feFlood flood-opacity="0" result="BackgroundImageFix"></feFlood>
        <feColorMatrix in="SourceAlpha" type="matrix" values="0 0 0 0 0 0 0 0 0 0 0 0 0 0 0 0 0 0 127 0" result="hardAlpha"></feColorMatrix>
        <feOffset dy="20"></feOffset>
        <feGaussianBlur stdDeviation="20"></feGaussianBlur>
        <feColorMatrix type="matrix" values="0 0 0 0 0 0 0 0 0 0 0 0 0 0 0 0 0 0 0.25 0"></feColorMatrix>
        <feBlend mode="normal" in2="BackgroundImageFix" result="effect1_dropShadow_2_374"></feBlend>
        <feBlend mode="normal" in="SourceGraphic" in2="effect1_dropShadow_2_374" result="shape"></feBlend>
      </filter>
    </defs>
  </symbol>
</svg>