<svg width="136" height="46" viewBox="0 0 136 46" fill="none" xmlns="http://www.w3.org/2000/svg">
<path d="M5.52 0H130.364C133.409 0 135.884 2.4748 135.884 5.52V40.48C135.884 43.5252 133.409 46 130.364 46H5.52C2.4748 46 0 43.5252 0 40.48V5.52C0 2.4748 2.4748 0 5.52 0Z" fill="black"/>
<path d="M29.7438 21.9517C29.7162 18.6581 32.4394 17.0573 32.559 16.9837C31.0134 14.7389 28.6214 14.4261 27.7842 14.3985C25.7786 14.1869 23.8282 15.6037 22.807 15.6037C21.7674 15.6037 20.185 14.4261 18.4922 14.4537C16.3118 14.4905 14.2602 15.7509 13.147 17.7197C10.8378 21.7217 12.5582 27.6097 14.7754 30.8481C15.8886 32.4305 17.1766 34.2061 18.8786 34.1417C20.5346 34.0773 21.1602 33.0837 23.1566 33.0837C25.1438 33.0837 25.7234 34.1417 27.453 34.1049C29.2378 34.0773 30.351 32.5133 31.4274 30.9125C32.7062 29.1001 33.2214 27.3061 33.2398 27.2141C33.1938 27.1957 29.7806 25.8893 29.7438 21.9517" fill="white"/>
<path d="M26.4776 12.2735C27.37 11.1603 27.9772 9.64228 27.8116 8.09668C26.5236 8.15188 24.9044 8.98908 23.9752 10.0839C23.1564 11.0499 22.4204 12.6231 22.6044 14.1043C24.058 14.2147 25.5484 13.3683 26.4776 12.2735" fill="white"/>
<path d="M53.774 33.9116H51.4556L50.186 29.9188H45.77L44.5648 33.9116H42.3108L46.6808 20.3232H49.3856L53.774 33.9116ZM49.8088 28.2444L48.6588 24.7024C48.5392 24.3344 48.3092 23.488 47.978 22.1448H47.932C47.794 22.7244 47.5824 23.58 47.288 24.7024L46.1564 28.2444H49.8088Z" fill="white"/>
<path d="M65.0071 28.8975C65.0071 30.5627 64.5563 31.8783 63.6455 32.8443C62.8359 33.7091 61.8239 34.1323 60.6279 34.1323C59.3307 34.1323 58.4015 33.6723 57.8311 32.7431V37.8859H55.6507V27.3335C55.6507 26.2847 55.6231 25.2175 55.5679 24.1135H57.4815L57.6011 25.6683H57.6379C58.3647 24.4999 59.4687 23.9111 60.9407 23.9111C62.0999 23.9111 63.0567 24.3711 63.8295 25.2819C64.6207 26.2019 65.0071 27.3979 65.0071 28.8975V28.8975ZM62.7899 28.9711C62.7899 28.0143 62.5783 27.2323 62.1459 26.6159C61.6767 25.9719 61.0419 25.6499 60.2507 25.6499C59.7171 25.6499 59.2295 25.8339 58.7879 26.1835C58.3555 26.5423 58.0611 27.0023 57.9323 27.5819C57.8679 27.8487 57.8311 28.0695 57.8311 28.2443V29.8819C57.8311 30.5903 58.0519 31.1975 58.4843 31.6851C58.9167 32.1727 59.4871 32.4211 60.1863 32.4211C61.0051 32.4211 61.6399 32.0991 62.0999 31.4735C62.5599 30.8387 62.7899 30.0107 62.7899 28.9711V28.9711Z" fill="white"/>
<path d="M76.2678 28.8975C76.2678 30.5627 75.817 31.8783 74.9062 32.8443C74.0966 33.7091 73.0846 34.1323 71.8886 34.1323C70.5914 34.1323 69.6622 33.6723 69.0918 32.7431V37.8859H66.9114V27.3335C66.9114 26.2847 66.8838 25.2175 66.8286 24.1135H68.7422L68.8618 25.6683H68.8986C69.6254 24.4999 70.7294 23.9111 72.2014 23.9111C73.3606 23.9111 74.3174 24.3711 75.0902 25.2819C75.8814 26.2019 76.2678 27.3979 76.2678 28.8975ZM74.0506 28.9711C74.0506 28.0143 73.839 27.2323 73.4066 26.6159C72.9374 25.9719 72.3026 25.6499 71.5114 25.6499C70.9778 25.6499 70.4902 25.8339 70.0486 26.1835C69.6162 26.5423 69.331 27.0023 69.193 27.5819C69.1286 27.8487 69.0918 28.0695 69.0918 28.2443V29.8819C69.0918 30.5903 69.3126 31.1975 69.745 31.6851C70.1774 32.1727 70.7478 32.4211 71.447 32.4211C72.2658 32.4211 72.9098 32.0991 73.3606 31.4735C73.8298 30.8387 74.0506 30.0107 74.0506 28.9711V28.9711Z" fill="white"/>
<path d="M88.8719 30.1027C88.8719 31.2619 88.4671 32.2003 87.6667 32.9271C86.7835 33.7183 85.5507 34.1139 83.9683 34.1139C82.5055 34.1139 81.3371 33.8287 80.4539 33.2675L80.9599 31.4551C81.9167 32.0163 82.9655 32.3015 84.1063 32.3015C84.9251 32.3015 85.5691 32.1175 86.0199 31.7495C86.4799 31.3815 86.7099 30.8847 86.7099 30.2683C86.7099 29.7163 86.5167 29.2563 86.1487 28.8791C85.7715 28.5019 85.1459 28.1523 84.2719 27.8303C81.8707 26.9379 80.6839 25.6407 80.6839 23.9387C80.6839 22.8255 81.1071 21.9147 81.9443 21.1971C82.7815 20.4887 83.8947 20.1299 85.2839 20.1299C86.5167 20.1299 87.5471 20.3415 88.3659 20.7739L87.8139 22.5403C87.0411 22.1263 86.1763 21.9147 85.2011 21.9147C84.4375 21.9147 83.8303 22.1079 83.3979 22.4759C83.0391 22.8163 82.8551 23.2211 82.8551 23.7087C82.8551 24.2423 83.0667 24.6931 83.4807 25.0335C83.8395 25.3555 84.5019 25.7051 85.4587 26.0823C86.6271 26.5515 87.4827 27.1035 88.0347 27.7383C88.5959 28.3731 88.8719 29.1643 88.8719 30.1027" fill="white"/>
<path d="M96.0847 25.7514H93.6834V30.5078C93.6834 31.713 94.1066 32.3202 94.953 32.3202C95.3394 32.3202 95.6614 32.2834 95.919 32.219L95.9834 33.875C95.551 34.0314 94.9899 34.1142 94.2907 34.1142C93.4259 34.1142 92.7634 33.8474 92.2758 33.323C91.7882 32.7986 91.549 31.9154 91.549 30.6826V25.7422H90.123V24.1138H91.549V22.3198L93.6834 21.6758V24.1138H96.0847V25.7514" fill="white"/>
<path d="M106.885 28.9339C106.885 30.4427 106.453 31.6755 105.597 32.6415C104.696 33.6351 103.5 34.1319 102.009 34.1319C100.574 34.1319 99.4242 33.6535 98.5686 32.7059C97.713 31.7583 97.2898 30.5531 97.2898 29.0995C97.2898 27.5815 97.7314 26.3395 98.6054 25.3735C99.4886 24.4075 100.675 23.9199 102.166 23.9199C103.601 23.9199 104.76 24.3983 105.634 25.3551C106.471 26.2751 106.885 27.4711 106.885 28.9339V28.9339ZM104.631 28.9799C104.631 28.0783 104.438 27.3147 104.052 26.6707C103.592 25.8887 102.939 25.5023 102.092 25.5023C101.218 25.5023 100.547 25.8887 100.096 26.6707C99.7002 27.3147 99.5162 28.0967 99.5162 29.0259C99.5162 29.9275 99.7094 30.7003 100.096 31.3351C100.565 32.1171 101.227 32.5035 102.074 32.5035C102.902 32.5035 103.555 32.1079 104.033 31.3167C104.429 30.6543 104.631 29.8815 104.631 28.9799V28.9799Z" fill="white"/>
<path d="M113.97 26.0271C113.758 25.9903 113.528 25.9719 113.28 25.9719C112.516 25.9719 111.918 26.2571 111.504 26.8367C111.145 27.3427 110.961 27.9959 110.961 28.7687V33.9115H108.781V27.1955C108.781 26.0639 108.763 25.0335 108.717 24.1135H110.612L110.695 25.9903H110.759C110.989 25.3463 111.348 24.8219 111.845 24.4355C112.332 24.0859 112.857 23.9111 113.418 23.9111C113.62 23.9111 113.804 23.9295 113.961 23.9479L113.97 26.0271" fill="white"/>
<path d="M123.703 28.5472C123.703 28.9336 123.676 29.2648 123.62 29.5316H117.088C117.116 30.4976 117.429 31.2428 118.036 31.7488C118.588 32.1996 119.296 32.4296 120.17 32.4296C121.136 32.4296 122.02 32.2732 122.811 31.9696L123.151 33.4784C122.222 33.8832 121.127 34.0856 119.867 34.0856C118.349 34.0856 117.153 33.6348 116.288 32.7424C115.423 31.85 114.991 30.6448 114.991 29.1452C114.991 27.6732 115.396 26.4404 116.205 25.456C117.052 24.4072 118.192 23.8828 119.628 23.8828C121.035 23.8828 122.112 24.4072 122.829 25.456C123.409 26.3024 123.703 27.3236 123.703 28.5472V28.5472ZM121.624 27.986C121.642 27.342 121.495 26.7808 121.201 26.3116C120.824 25.7044 120.244 25.4008 119.471 25.4008C118.763 25.4008 118.183 25.6952 117.742 26.284C117.383 26.7532 117.162 27.3236 117.098 27.9768L121.624 27.986V27.986Z" fill="white"/>
<path d="M48.76 15.4653H47.6192L46.9936 13.5057H44.8224L44.2244 15.4653H43.1204L45.264 8.78613H46.5888L48.76 15.4653ZM46.8004 12.6777L46.2392 10.9297C46.184 10.7549 46.0736 10.3317 45.8988 9.66933H45.8804C45.8068 9.95453 45.7148 10.3685 45.5584 10.9297L45.0064 12.6777H46.8004Z" fill="white"/>
<path d="M54.1327 10.6445L52.3111 15.4653H51.2715L49.5051 10.6445H50.6551L51.4739 13.1929C51.6119 13.6161 51.7315 14.0209 51.8235 14.4073H51.8511C51.9339 14.0577 52.0535 13.6529 52.2007 13.1929L53.0103 10.6445H54.1327" fill="white"/>
<path d="M58.0151 15.4651L57.9323 14.9131H57.9047C57.5735 15.3547 57.1043 15.5755 56.4971 15.5755C55.6323 15.5755 55.0251 14.9683 55.0251 14.1587C55.0251 12.9719 56.0555 12.3555 57.8403 12.3555V12.2635C57.8403 11.6287 57.4999 11.3159 56.8375 11.3159C56.3591 11.3159 55.9451 11.4355 55.5771 11.6747L55.3563 10.9755C55.7979 10.6995 56.3591 10.5615 57.0123 10.5615C58.2727 10.5615 58.9075 11.2239 58.9075 12.5579V14.3335C58.9075 14.8211 58.9259 15.1983 58.9811 15.4835L58.0151 15.4651V15.4651ZM57.8679 13.0639C56.6811 13.0639 56.0831 13.3491 56.0831 14.0391C56.0831 14.5451 56.3867 14.7935 56.8191 14.7935C57.3619 14.7935 57.8679 14.3795 57.8679 13.8091V13.0639Z" fill="white"/>
<path d="M61.2903 9.854C60.9315 9.854 60.6555 9.578 60.6555 9.21C60.6555 8.842 60.9407 8.5752 61.3087 8.5752C61.6767 8.5752 61.9711 8.842 61.9619 9.21C61.9619 9.5964 61.6859 9.854 61.2903 9.854V9.854ZM60.7751 10.6452H61.8423V15.4568H60.7751V10.6452V10.6452Z" fill="white"/>
<path d="M63.7468 8.43652H64.814V15.4561H63.7468V8.43652Z" fill="white"/>
<path d="M69.3587 15.4646L69.2759 14.9126H69.2483C68.9171 15.3542 68.4479 15.575 67.8407 15.575C66.9759 15.575 66.3687 14.9678 66.3687 14.1582C66.3687 12.9714 67.3991 12.355 69.1839 12.355V12.263C69.1839 11.6282 68.8435 11.3154 68.1811 11.3154C67.7027 11.3154 67.2887 11.435 66.9207 11.6742L66.6999 10.9658C67.1415 10.6898 67.7027 10.5518 68.3559 10.5518C69.6163 10.5518 70.2511 11.2142 70.2511 12.5482V14.3238C70.2511 14.8114 70.2695 15.1886 70.3155 15.4738H69.3587V15.4646V15.4646ZM69.2115 13.0634C68.0247 13.0634 67.4267 13.3486 67.4267 14.0386C67.4267 14.5446 67.7303 14.793 68.1627 14.793C68.7055 14.793 69.2115 14.379 69.2115 13.8086V13.0634Z" fill="white"/>
<path d="M74.5936 15.5757C73.9128 15.5757 73.4068 15.2905 73.0756 14.7201H73.0572L72.9928 15.4653H72.082C72.1096 15.0789 72.1188 14.6465 72.1188 14.1681V8.43652H73.1952V11.3529H73.2136C73.5356 10.8193 74.0416 10.5525 74.75 10.5525C75.9092 10.5525 76.7188 11.5461 76.7188 12.9905C76.7188 14.4809 75.8172 15.5757 74.5936 15.5757V15.5757ZM74.3728 11.3897C73.7564 11.3897 73.1952 11.9233 73.1952 12.6685V13.5149C73.1952 14.1773 73.7012 14.7201 74.3544 14.7201C75.1548 14.7201 75.6332 14.0669 75.6332 13.0273C75.6332 12.0521 75.1364 11.3897 74.3728 11.3897V11.3897Z" fill="white"/>
<path d="M78.3013 8.43652H79.3685V15.4561H78.3013V8.43652Z" fill="white"/>
<path d="M85.1921 13.3126H81.9813C81.9997 14.2234 82.6069 14.7386 83.4993 14.7386C83.9777 14.7386 84.4101 14.6558 84.7965 14.5086L84.9621 15.2538C84.5113 15.4562 83.9777 15.5482 83.3521 15.5482C81.8433 15.5482 80.9509 14.6006 80.9509 13.1194C80.9509 11.6474 81.8617 10.5342 83.2325 10.5342C84.4561 10.5342 85.2381 11.445 85.2381 12.825C85.2381 13.0182 85.2289 13.1838 85.1921 13.3126V13.3126ZM84.2169 12.549C84.2169 11.8038 83.8397 11.2794 83.1589 11.2794C82.5425 11.2794 82.0641 11.813 81.9905 12.549H84.2169Z" fill="white"/>
<path d="M91.678 15.575C90.2704 15.575 89.3596 14.5262 89.3596 13.1002C89.3596 11.6098 90.2888 10.5518 91.7608 10.5518C93.15 10.5518 94.0792 11.5546 94.0792 13.0174C94.0792 14.517 93.1224 15.575 91.678 15.575ZM91.724 11.3338C90.9512 11.3338 90.4544 12.0606 90.4544 13.0634C90.4544 14.057 90.9604 14.7746 91.7148 14.7746C92.4692 14.7746 92.9752 14.0018 92.9752 13.0358C92.966 12.0606 92.4784 11.3338 91.724 11.3338V11.3338Z" fill="white"/>
<path d="M99.8291 15.465H98.7619V12.6958C98.7619 11.8402 98.4307 11.417 97.7867 11.417C97.1519 11.417 96.7195 11.9598 96.7195 12.5946V15.4558H95.6523V12.0242C95.6523 11.601 95.6431 11.141 95.6155 10.6442H96.5539L96.5999 11.3894H96.6275C96.9127 10.8742 97.5015 10.543 98.1547 10.543C99.1667 10.543 99.8291 11.3158 99.8291 12.5762V15.465Z" fill="white"/>
</svg>
