<svg width="55" height="35" viewBox="0 0 55 35" fill="none" xmlns="http://www.w3.org/2000/svg">
<path d="M35.7428 17.0717C35.7428 21.5999 32.0457 25.2708 27.4851 25.2708C22.9245 25.2708 19.2274 21.5999 19.2274 17.0717C19.2274 12.5434 22.9245 8.87262 27.4851 8.87262C32.0457 8.87257 35.7428 12.5435 35.7428 17.0717ZM27.5 0C22.778 0.0217075 17.8835 1.21306 13.2502 3.49396C9.81008 5.25725 6.45746 7.74502 3.54722 10.8157C2.11787 12.3831 0.294754 14.6528 0 17.0744C0.0348333 19.172 2.20596 21.7611 3.54722 23.3331C6.27628 26.2831 9.54158 28.7014 13.2502 30.6566C17.571 32.8298 22.3535 34.081 27.5 34.1506C32.2265 34.1285 37.1199 32.9234 41.748 30.6566C45.1882 28.8933 48.5425 26.4037 51.4528 23.3331C52.8821 21.7656 54.7052 19.4959 55 17.0744C54.9652 14.9767 52.794 12.3875 51.4528 10.8156C48.7237 7.86553 45.4567 5.44906 41.748 3.49386C37.4295 1.32235 32.6353 0.0797525 27.5 0ZM27.4965 4.23928C34.652 4.23928 40.4525 9.9865 40.4525 17.0762C40.4525 24.1659 34.652 29.9131 27.4965 29.9131C20.3411 29.9131 14.5406 24.1658 14.5406 17.0762C14.5406 9.9865 20.3411 4.23928 27.4965 4.23928Z" fill="black"/>
</svg>
