<svg width="517" height="900" viewBox="0 0 517 900" fill="none" xmlns="http://www.w3.org/2000/svg">
<g filter="url(#filter0_d_2_474)">
<path d="M476.849 219.473C476.837 219.438 476.826 219.392 476.814 219.357C476.721 219.101 476.581 218.868 476.418 218.647C476.395 218.612 476.372 218.589 476.348 218.566C475.976 218.112 475.464 217.786 474.882 217.647C474.673 217.6 474.452 217.554 474.231 217.554H473.393V98.1898C473.393 69.3466 470.112 51.4985 452.183 33.9296C443.84 25.7502 428.133 16 400.581 16H115.849C88.3319 16 72.6013 25.7502 64.259 33.9296C46.3411 51.4868 43.06 69.3466 43.06 98.1898V134.154H42.0012C41.8383 134.154 41.6871 134.212 41.5358 134.247V134.212C41.4776 134.224 41.4427 134.258 41.3846 134.27C41.2799 134.305 41.1868 134.351 41.0821 134.398C40.9657 134.456 40.861 134.538 40.7563 134.619C40.6748 134.677 40.5934 134.747 40.5236 134.817C40.4189 134.933 40.3491 135.061 40.2676 135.189C40.2327 135.259 40.1745 135.329 40.1513 135.41C40.0582 135.631 40 135.876 40 136.132V165.208C40 165.464 40.0582 165.708 40.1513 165.929C40.1745 166.01 40.2327 166.069 40.2676 166.15C40.3374 166.278 40.4189 166.406 40.5236 166.522C40.5934 166.592 40.6632 166.662 40.7563 166.72C40.861 166.802 40.9541 166.871 41.0821 166.941C41.1751 166.988 41.2799 167.034 41.3846 167.069C41.4311 167.081 41.4776 167.116 41.5358 167.127V167.092C41.6871 167.127 41.8383 167.186 42.0012 167.186H43.06V195.819H42.0012C41.8383 195.819 41.6871 195.878 41.5358 195.912V195.878C41.4776 195.889 41.4427 195.924 41.3846 195.936C41.2799 195.971 41.1868 196.017 41.0821 196.064C40.9657 196.122 40.861 196.203 40.7563 196.285C40.6748 196.355 40.5934 196.413 40.5236 196.483C40.4189 196.599 40.3491 196.727 40.2676 196.855C40.2327 196.925 40.1745 196.994 40.1513 197.076C40.0582 197.297 40 197.541 40 197.797V256.356C40 256.612 40.0582 256.845 40.1513 257.078C40.1745 257.159 40.2327 257.217 40.2676 257.299C40.3374 257.438 40.4189 257.566 40.5236 257.671C40.5934 257.753 40.6632 257.811 40.7563 257.869C40.861 257.962 40.9541 258.02 41.0821 258.09C41.1751 258.148 41.2799 258.183 41.3846 258.218C41.4311 258.241 41.4776 258.265 41.5242 258.276V258.241C41.6754 258.276 41.8267 258.334 41.9896 258.334H43.0484V274.879H42.0012C41.8383 274.879 41.6871 274.938 41.5358 274.972V274.938C41.4776 274.949 41.4427 274.984 41.3846 274.996C41.2799 275.031 41.1868 275.077 41.0821 275.124C40.9657 275.182 40.861 275.263 40.7563 275.345C40.6748 275.415 40.5934 275.473 40.5236 275.543C40.4189 275.659 40.3491 275.787 40.2676 275.915C40.2327 275.985 40.1745 276.054 40.1513 276.136C40.0582 276.357 40 276.601 40 276.857V335.416C40 335.672 40.0582 335.905 40.1513 336.138C40.1745 336.219 40.2327 336.277 40.2676 336.359C40.3374 336.498 40.4189 336.626 40.5236 336.731C40.5934 336.813 40.6632 336.871 40.7563 336.929C40.861 337.022 40.9541 337.08 41.0821 337.15C41.1751 337.208 41.2799 337.243 41.3846 337.278C41.4311 337.301 41.4776 337.325 41.5242 337.336V337.301C41.6754 337.336 41.8267 337.394 41.9896 337.394H43.0484V800.003C43.0484 828.846 46.3295 846.694 64.2474 864.263C72.5897 872.443 88.3086 882.181 115.849 882.181H400.581C428.121 882.181 443.84 872.431 452.183 864.263C470.112 846.694 473.393 828.835 473.393 800.003V316.044H474.231C474.452 316.044 474.673 316.009 474.882 315.963C475.464 315.823 475.976 315.486 476.348 315.043C476.372 315.02 476.395 314.985 476.418 314.962C476.581 314.753 476.721 314.508 476.814 314.252C476.826 314.206 476.837 314.171 476.849 314.136C476.942 313.868 477 313.589 477 313.287V220.323C477 220.032 476.942 219.741 476.849 219.473Z" fill="#B7DECE"/>
<path d="M115.86 872.803L115.837 862.076V872.803C91.5081 872.803 77.9649 864.531 70.8908 857.585C55.2766 842.284 52.5308 826.856 52.5308 800.084V98.1896C52.5308 71.4291 55.2766 55.9894 70.8908 40.6893C77.9649 33.7548 91.5197 25.4707 115.849 25.4707H400.581C424.933 25.4707 438.476 33.7432 445.55 40.6893C461.165 55.9894 463.91 71.4174 463.91 98.1896V800.084C463.91 826.845 461.165 842.273 445.55 857.585C438.476 864.519 424.933 872.803 400.593 872.803H115.86Z" fill="black"/>
<g opacity="0.2">
<rect x="230.826" y="47.4141" width="54.6846" height="8.14452" rx="4.07226" fill="white"/>
<circle cx="305.291" cy="52.0679" r="6.98102" fill="white"/>
</g>
<mask id="mask0_2_474" style="mask-type:alpha" maskUnits="userSpaceOnUse" x="71" y="44" width="376" height="812">
<path d="M433.106 54.0309C428.44 49.4523 419.074 44 400.876 44H368.401C366.749 44.2097 364.352 45.2116 364.119 49.1727C363.793 54.625 363.119 61.8133 357.72 67.3471C353.554 71.6111 348.179 73.6383 342.582 73.6383C330.493 73.6383 187.388 73.6383 175.299 73.6383C169.702 73.6383 164.315 71.6111 160.149 67.3471C154.75 61.8133 154.087 54.625 153.761 49.1727C153.529 45.2 151.12 44.2097 149.479 44H116.132C97.9459 44 88.5677 49.4523 83.9135 54.0309C72.9645 64.7841 71.0098 75.048 71.0098 98.5931V801.407C71.0098 824.94 72.9529 835.216 83.9135 845.969C88.5793 850.536 97.9459 856 116.144 856H400.887C419.085 856 428.452 850.548 433.106 845.969C444.067 835.216 446.01 824.94 446.01 801.407V98.5931C446.01 75.0596 444.067 64.7841 433.106 54.0309Z" fill="#494949"/>
</mask>
<g mask="url(#mask0_2_474)">
<rect x="71.0098" y="44" width="375" height="812" fill="#B7DECE"/>
</g>
<rect x="190" y="840.991" width="138" height="5" rx="2.5" fill="black"/>
</g>
<defs>
<filter id="filter0_d_2_474" x="0" y="-4" width="517" height="946.182" filterUnits="userSpaceOnUse" color-interpolation-filters="sRGB">
<feFlood flood-opacity="0" result="BackgroundImageFix"/>
<feColorMatrix in="SourceAlpha" type="matrix" values="0 0 0 0 0 0 0 0 0 0 0 0 0 0 0 0 0 0 127 0" result="hardAlpha"/>
<feOffset dy="20"/>
<feGaussianBlur stdDeviation="20"/>
<feColorMatrix type="matrix" values="0 0 0 0 0 0 0 0 0 0 0 0 0 0 0 0 0 0 0.25 0"/>
<feBlend mode="normal" in2="BackgroundImageFix" result="effect1_dropShadow_2_474"/>
<feBlend mode="normal" in="SourceGraphic" in2="effect1_dropShadow_2_474" result="shape"/>
</filter>
</defs>
</svg>
