<?xml version="1.0" standalone="no"?>
<!DOCTYPE svg PUBLIC "-//W3C//DTD SVG 20010904//EN"
 "http://www.w3.org/TR/2001/REC-SVG-20010904/DTD/svg10.dtd">
<svg version="1.0" xmlns="http://www.w3.org/2000/svg"
 width="700.000000pt" height="700.000000pt" viewBox="0 0 700.000000 700.000000"
 preserveAspectRatio="xMidYMid meet">
<metadata>
Created by potrace 1.14, written by Peter Selinger 2001-2017
</metadata>
<g transform="translate(0.000000,700.000000) scale(0.100000,-0.100000)"
fill="#000000" stroke="none">
<path d="M2199 6996 c-2 -2 -94 -7 -204 -10 -110 -4 -225 -9 -255 -11 -30 -2
-91 -7 -135 -10 -415 -29 -809 -176 -1039 -385 -264 -240 -409 -500 -485 -870
-28 -137 -39 -224 -56 -450 -15 -204 -20 -630 -20 -1745 0 -1131 4 -1502 20
-1740 9 -126 16 -220 19 -245 2 -14 7 -52 11 -85 7 -58 9 -70 20 -117 3 -13 8
-36 11 -53 3 -16 12 -55 20 -85 9 -30 19 -71 24 -90 11 -45 71 -193 106 -262
57 -115 140 -225 259 -343 193 -194 364 -293 655 -379 61 -18 191 -47 230 -51
14 -1 45 -6 70 -10 25 -4 56 -9 70 -10 14 -1 57 -5 95 -9 77 -7 176 -12 460
-24 254 -9 2593 -9 2865 1 278 10 491 23 538 32 9 1 40 6 67 9 99 14 121 18
205 37 204 47 398 127 550 227 112 74 308 270 382 382 119 181 192 369 242
620 13 66 19 104 32 210 31 241 39 664 39 1975 0 1351 -8 1716 -40 1970 -2 17
-7 53 -10 80 -3 28 -8 59 -10 70 -5 20 -10 52 -21 115 -3 19 -8 38 -11 42 -2
5 -6 16 -8 25 -6 33 -37 138 -50 168 -120 293 -207 420 -410 604 -269 241
-660 369 -1210 396 -71 4 -159 9 -195 12 -70 5 -2825 14 -2831 9z"/>
</g>
</svg>
